<svg id="Layer_1" enable-background="new 0 0 128 128" height="512" viewBox="0 0 128 128" width="512" xmlns="http://www.w3.org/2000/svg"><g><g><g clip-rule="evenodd" fill-rule="evenodd"><path d="m12.048 59.469h104.852c2.229 0 4.029 1.801 4.029 4.03v35.466c0 2.229-1.8 4.059-4.029 4.059h-104.852c-2.2 0-4.029-1.829-4.029-4.059v-35.466c0-2.229 1.829-4.03 4.029-4.03z" fill="#c3de75"/><path d="m107.84 59.469h9.06c2.229 0 4.029 1.801 4.029 4.03v35.466c0 2.229-1.8 4.059-4.029 4.059h-9.06c2.229 0 4.03-1.829 4.03-4.059v-35.466c0-2.229-1.801-4.03-4.03-4.03z" fill="#9fba48"/><g><path d="m91.78 103.023h17.832v3.4c0 2.229-1.8 4.029-4.029 4.029h-9.773c-2.229 0-4.029-1.8-4.029-4.029v-3.4z" fill="#36434f"/><path d="m104.755 103.023h4.857v3.4c0 2.229-1.8 4.029-4.029 4.029h-4.858c2.201 0 4.03-1.8 4.03-4.029z" fill="#25303b"/></g><g><path d="m19.192 103.023h17.833v3.4c0 2.229-1.8 4.029-4.03 4.029h-9.773c-2.229 0-4.029-1.8-4.029-4.029v-3.4z" fill="#36434f"/><path d="m32.167 103.023h4.858v3.4c0 2.229-1.8 4.029-4.03 4.029h-4.858c2.2 0 4.029-1.8 4.029-4.029v-3.4z" fill="#25303b"/></g><g><path d="m97.581 59.469v-38.209c0-2.686 2.2-4.915 4.915-4.915 2.715 0 4.916 2.229 4.916 4.915v38.209z" fill="#36434f"/><path d="m100.696 16.688c.571-.2 1.171-.343 1.8-.343 2.715 0 4.916 2.229 4.916 4.915v38.209h-3.602v-38.209c.001-2.058-1.286-3.858-3.114-4.572z" fill="#25303b"/></g><g><path d="m31.395 59.469v-38.209c0-2.686-2.201-4.915-4.916-4.915-2.715 0-4.915 2.229-4.915 4.915v38.209z" fill="#36434f"/><path d="m24.679 16.688c.572-.2 1.172-.343 1.8-.343 2.715 0 4.916 2.229 4.916 4.915v38.209h-3.601v-38.209c0-2.058-1.286-3.858-3.115-4.572z" fill="#25303b"/></g></g><path d="m89.951 89.534h7.858v2h-7.858zm14.06-18.604h7.859v2h-7.859zm0 9.288h7.859v2.028h-7.859zm0 9.316h7.859v2h-7.859zm-14.06-18.604h7.858v2h-7.858zm0 9.288h7.858v2.028h-7.858z" fill="#fff"/><path clip-rule="evenodd" d="m19.192 59.469h64.1v16.576c0 2.601-2.029 4.744-4.544 4.744h-54.983c-2.515 0-4.572-2.144-4.572-4.744v-16.576z" fill="#ac79ad" fill-rule="evenodd"/><g clip-rule="evenodd" fill="#fff" fill-rule="evenodd"><path d="m34.196 66.071c2.229 0 4.058 1.829 4.058 4.058s-1.829 4.03-4.058 4.03c-2.201 0-4.03-1.801-4.03-4.03s1.829-4.058 4.03-4.058z"/><path d="m51.256 66.071c2.229 0 4.03 1.829 4.03 4.058s-1.801 4.03-4.03 4.03-4.029-1.801-4.029-4.03 1.8-4.058 4.029-4.058z"/><path d="m68.289 66.071c2.229 0 4.029 1.829 4.029 4.058s-1.801 4.03-4.029 4.03c-2.229 0-4.029-1.801-4.029-4.03s1.8-4.058 4.029-4.058z"/></g></g><g><path d="m116.899 58.469h-8.487v-37.209c0-3.262-2.654-5.915-5.916-5.915s-5.915 2.653-5.915 5.915v37.209h-6.002c-.553 0-1 .448-1 1s.447 1 1 1h6.002 11.831 8.487c1.67 0 3.029 1.359 3.029 3.03v35.466c0 1.687-1.359 3.059-3.029 3.059h-6.116-19.832-38.123c-.552 0-1 .447-1 1s.448 1 1 1h38.123v2.4c0 2.773 2.256 5.029 5.029 5.029h9.773c2.773 0 5.029-2.256 5.029-5.029v-2.4h6.116c2.773 0 5.029-2.27 5.029-5.059v-35.466c.002-2.773-2.254-5.03-5.028-5.03zm-18.318 0v-37.209c0-2.159 1.756-3.915 3.915-3.915s3.916 1.756 3.916 3.915v37.209zm10.202 47.955c0 1.67-1.359 3.029-3.029 3.029h-9.774c-1.67 0-3.029-1.359-3.029-3.029v-2.4h15.832z"/><path d="m46.541 102.023h-8.516-19.833-6.145c-1.642 0-3.029-1.4-3.029-3.059v-35.465c0-1.67 1.359-3.03 3.029-3.03h8.517 11.831 51.926c.553 0 1-.448 1-1s-.447-1-1-1h-51.926v-37.209c0-3.262-2.654-5.915-5.916-5.915s-5.915 2.653-5.915 5.915v37.209h-8.517c-2.773 0-5.029 2.256-5.029 5.03v35.466c0 2.789 2.256 5.059 5.029 5.059h6.145v2.4c0 2.773 2.256 5.029 5.029 5.029h9.773c2.773 0 5.03-2.256 5.03-5.029v-2.4h8.516c.552 0 1-.447 1-1s-.447-1.001-.999-1.001zm-23.977-80.763c0-2.159 1.756-3.915 3.915-3.915s3.916 1.756 3.916 3.915v37.209h-7.831zm13.461 85.164c0 1.67-1.359 3.029-3.03 3.029h-9.773c-1.67 0-3.029-1.359-3.029-3.029v-2.4h15.833v2.4z"/></g></g></svg>