<?xml version="1.0" standalone="no"?><!DOCTYPE svg PUBLIC "-//W3C//DTD SVG 1.1//EN" "http://www.w3.org/Graphics/SVG/1.1/DTD/svg11.dtd" ><svg xmlns="http://www.w3.org/2000/svg"><metadata></metadata><defs><font id="Founder:FZHanZhenGuangBiaoS-GB	Regular" horiz-adv-x="256"><font-face font-family="FZHanZhenGuangBiaoS-GB" font-weight="400" font-stretch="normal" units-per-em="256" panose-1="2 0 0 0 0 0 0 0 0 0" ascent="229" descent="-75" x-height="0" bbox="1 -41 261 208" underline-thickness="12" underline-position="-63" unicode-range="U+002e-ff0c" /><missing-glyph horiz-adv-x="256"  /><glyph glyph-name="" unicode="." d="M62 36 l0 -51 l-53 0 l0 51 l53 0 Z" /><glyph glyph-name="" unicode="/" d="M118 194 l38 0 l-109 -209 l-39 0 l110 209 Z" /><glyph glyph-name="" unicode="0" d="M153 147 l0 -112 q-1 -48 -49 -50 l-40 0 q-47 2 -49 47 l0 113 q2 47 50 49 l39 0 q46 -3 49 -47 ZM113 39 l0 102 q-1 16 -18 17 l-23 0 q-16 -1 -17 -17 l0 -103 q1 -16 17 -17 l22 0 q18 1 19 18 Z" /><glyph glyph-name="" unicode="1" d="M104 194 l0 -209 l-41 0 l0 209 l41 0 Z" /><glyph glyph-name="" unicode="2" d="M148 21 l0 -36 l-129 0 l0 87 q2 33 37 35 l52 0 l0 29 q-2 21 -26 22 l-63 0 l0 36 l89 0 q39 -1 40 -36 l0 -54 q-2 -31 -35 -33 l-54 0 l0 -50 l89 0 Z" /><glyph glyph-name="" unicode="5" d="M147 194 l0 -36 l-88 0 l0 -43 l47 0 q39 -1 41 -37 l0 -54 q-1 -38 -43 -39 l-85 0 l0 36 l88 0 l0 35 q-3 21 -28 23 l-60 0 l0 115 l128 0 Z" /><glyph glyph-name="" unicode="6" d="M154 74 l0 -50 q-1 -38 -42 -39 l-60 0 q-37 1 -38 39 l0 123 q0 47 47 47 l85 0 l0 -36 l-92 0 l0 -43 l59 0 q40 -1 41 -41 ZM114 21 l0 36 q-2 20 -27 22 l-33 0 l0 -58 l60 0 Z" /><glyph glyph-name="" unicode="8" d="M154 58 l0 -35 q1 -39 -42 -38 l-57 0 q-43 0 -42 38 l0 35 q1 23 21 33 q-21 9 -21 33 l0 31 q2 37 39 39 l65 0 q35 -3 37 -38 l0 -32 q0 -21 -20 -33 q20 -11 20 -33 ZM88 158 l-35 0 l0 -48 l61 0 l0 27 q-2 20 -26 21 ZM88 73 l-35 0 l0 -52 l61 0 l0 32 q-2 18 -26 20 Z" /><glyph glyph-name="" unicode="&lt;" d="M48 82 l42 -66 l-42 0 l-41 65 l41 65 l42 0 l-42 -64 Z" /><glyph glyph-name="" unicode="&gt;" d="M51 146 l41 -64 l-41 -66 l-42 0 l42 66 l-42 64 l42 0 Z" /><glyph glyph-name="" unicode="d" d="M158 150 l0 -125 q-2 -38 -42 -40 l-103 0 l0 209 l96 0 q47 -3 49 -44 ZM118 21 l0 109 q-3 25 -33 28 l-32 0 l0 -137 l65 0 Z" /><glyph glyph-name="" unicode="e" d="M144 21 l0 -36 l-93 0 q-38 0 -38 35 l0 133 q2 39 40 41 l91 0 l0 -36 l-65 0 q-23 -2 -26 -23 l0 -26 l85 0 l0 -37 l-85 0 l0 -51 l91 0 Z" /><glyph glyph-name="" unicode="g" d="M155 68 l0 -43 q0 -40 -42 -40 l-58 0 q-42 0 -42 39 l0 125 q-1 46 48 45 l84 0 l0 -36 l-63 0 q-26 -2 -29 -25 l0 -112 l62 0 l0 26 q-2 17 -21 18 l-12 0 l0 36 l40 0 q31 -2 33 -33 Z" /><glyph glyph-name="" unicode="l" d="M142 21 l0 -36 l-85 0 q-44 0 -44 43 l0 166 l40 0 l0 -159 q0 -14 14 -14 l75 0 Z" /><glyph glyph-name="" unicode="o" d="M153 152 l0 -127 q0 -40 -44 -40 l-51 0 q-45 0 -45 40 l0 127 q1 41 45 42 l51 0 q42 -2 44 -42 ZM113 21 l0 109 q-2 26 -31 28 l-29 0 l0 -137 l60 0 Z" /><glyph glyph-name="" unicode="i" d="M55 141 l0 -156 l-41 0 l0 156 l41 0 ZM55 194 l0 -36 l-41 0 l0 36 l41 0 Z" /><glyph glyph-name="" unicode="m" d="M205 106 l0 -121 l-40 0 l0 102 q-2 16 -21 18 l-15 0 l0 -120 l-40 0 l0 102 q-2 16 -20 18 l-16 0 l0 -120 l-40 0 l0 121 q1 34 36 35 l29 0 q25 -2 31 -21 q9 20 30 21 l30 0 q34 -2 36 -35 Z" /><glyph glyph-name="" unicode="×" d="M66 128 l22 22 l39 -39 l39 41 l24 -20 l-40 -42 l40 -40 l-22 -22 l-40 39 l-40 -39 l-22 21 l40 40 l-40 39 Z" /><glyph glyph-name="" unicode="&#x3002;" d="M64 44 q-14 -1 -16 -16 q1 -15 16 -16 q15 2 16 16 q-2 14 -16 16 ZM63 74 q44 -4 48 -47 q-4 -43 -48 -47 q-43 4 -47 47 q4 43 47 47 Z" /><glyph glyph-name="" unicode="&#x4e00;" d="M10 105 l242 0 l0 -14 q0 -24 -25 -24 l-217 0 l0 38 Z" /><glyph glyph-name="" unicode="&#x4e07;" d="M248 203 l0 -33 l-156 0 l-5 -29 l112 0 q35 0 35 -40 l0 -109 q0 -26 -24 -26 l-63 0 l0 35 l40 0 q6 0 6 6 l0 77 q0 24 -22 23 l-89 0 l-22 -140 l-44 0 l33 203 l-39 0 l0 33 l238 0 Z" /><glyph glyph-name="" unicode="&#x4e2d;" d="M251 -9 l-98 0 l0 -26 l-43 0 l0 8 q0 18 -24 18 l-75 0 l0 152 q1 44 43 44 l56 0 l0 20 l43 0 l0 -20 l59 0 q39 0 39 -43 l0 -153 ZM110 24 l0 105 q1 25 -26 25 l-30 0 l0 -130 l56 0 ZM153 154 l0 -130 l55 0 l0 104 q0 26 -25 26 l-30 0 Z" /><glyph glyph-name="" unicode="&#x4e3a;" d="M172 79 l14 -56 l-43 0 l-18 65 l30 0 q12 0 17 -9 ZM252 107 l0 -111 q0 -31 -32 -31 l-62 0 l0 33 l45 0 q6 0 6 7 l0 90 q0 18 -21 18 l-61 0 l-65 -148 l-47 0 l68 148 l-73 0 l0 33 l87 0 l7 17 l-28 -9 q-27 -8 -42 17 l-9 29 l45 0 l2 -15 q6 -15 42 4 l7 15 l42 0 l-22 -58 l67 0 q43 0 44 -39 Z" /><glyph glyph-name="" unicode="&#x4e3b;" d="M109 187 l0 20 l46 0 l0 -20 l95 0 l0 -36 l-95 0 l0 -57 l86 0 l0 -36 l-86 0 l0 -57 l97 0 l0 -17 q0 -19 -17 -19 l-225 0 l0 36 l99 0 l0 29 q0 28 -26 28 l-61 0 l0 36 l87 0 l0 30 q0 27 -30 27 l-66 0 l0 36 l96 0 Z" /><glyph glyph-name="" unicode="&#x4e5f;" d="M154 27 l-42 0 l0 93 l-47 -13 l0 -102 q0 -7 6 -7 l181 0 l0 -14 q0 -19 -26 -19 l-164 0 q-38 0 -38 33 l0 98 l-14 -3 l0 37 l14 4 l0 62 l41 0 l0 -51 l47 12 l0 50 l42 0 l0 -39 l57 17 q32 0 32 -31 l0 -101 q-1 -24 -24 -25 l-37 0 l0 32 l13 0 q7 0 7 6 l0 77 l-48 -12 l0 -104 Z" /><glyph glyph-name="" unicode="&#x4e86;" d="M234 200 q27 -13 7 -40 l-84 -52 l0 -118 q-1 -25 -25 -25 l-64 0 l0 34 l36 0 q6 0 6 6 l0 118 l68 43 l-168 0 l0 34 l224 0 Z" /><glyph glyph-name="" unicode="&#x4e8e;" d="M116 116 l0 34 q1 23 -26 23 l-75 0 l0 34 l232 0 l0 -34 l-89 0 l0 -57 l94 0 l0 -35 l-94 0 l0 -90 q-1 -9 -7 -17 q-7 -9 -18 -9 l-52 0 l0 34 l26 0 q4 1 7 4 q2 2 2 6 l0 45 q0 27 -28 27 l-78 0 l0 35 l106 0 Z" /><glyph glyph-name="" unicode="&#x4ea7;" d="M54 89 l0 -100 q-1 -24 -24 -24 l-20 0 l0 124 q0 33 35 33 l21 0 l-17 34 l-39 0 l0 34 l94 0 l0 17 l43 0 l0 -17 l101 0 l0 -34 l-37 0 l-14 -34 l55 0 l0 -33 l-198 0 ZM165 156 l-67 0 q14 -34 33 -34 q21 0 34 34 Z" /><glyph glyph-name="" unicode="&#x4eca;" d="M15 65 l0 33 l92 0 l0 36 l44 0 l0 -36 l79 0 q22 -9 10 -36 l-80 -97 l-59 0 l83 100 l-169 0 ZM218 190 l34 -82 l-43 0 l-25 60 q-3 9 -13 8 l-73 0 l0 31 l92 0 q23 0 28 -17 ZM49 207 l42 0 l-29 -86 q-6 -14 -22 -14 l-30 0 l39 100 Z" /><glyph glyph-name="" unicode="&#x4f4d;" d="M190 207 l0 -15 l56 0 l0 -34 l-161 0 l0 34 l58 0 l0 15 l47 0 ZM130 145 l22 -117 q6 -23 18 -23 q13 0 17 22 l17 118 l39 0 l-19 -147 l28 0 l0 -14 q0 -19 -24 -19 l-140 0 l0 33 l27 0 l-24 147 l39 0 ZM81 206 q-12 -55 -39 -93 l26 0 l0 -125 q0 -23 -28 -23 l-14 0 l0 134 l-16 -6 l0 50 q23 17 33 63 l38 0 Z" /><glyph glyph-name="" unicode="&#x4f53;" d="M115 -28 l-40 0 l19 184 l-9 0 l0 33 l58 0 l0 18 l41 0 l0 -18 l62 0 l0 -33 l-12 0 l18 -184 l-40 0 l-4 33 l-24 0 l0 -40 l-41 0 l0 20 q0 20 -14 20 l-10 0 l-4 -33 ZM81 205 q-9 -62 -39 -92 l26 0 l0 -125 q0 -23 -28 -23 l-14 0 l0 133 l-16 -6 l0 49 q24 16 33 64 l38 0 ZM206 38 l-12 118 l-10 0 l0 -118 l22 0 ZM143 156 l-9 0 l-12 -118 l21 0 l0 118 Z" /><glyph glyph-name="" unicode="&#x5149;" d="M207 112 l45 0 l0 -33 l-57 0 l0 -72 q0 -6 7 -6 l50 0 l0 -14 q0 -19 -15 -19 l-54 0 q-29 0 -29 28 l0 62 q0 21 -18 21 l-30 0 q-20 -82 -87 -114 l0 46 q34 30 43 68 l-52 0 l0 34 l51 0 q-10 2 -19 11 l-28 67 l42 0 l15 -33 q17 -31 41 2 l0 47 l40 0 l0 -93 l9 0 l38 76 l42 0 l-34 -78 ZM112 112 l0 23 q-7 -14 -18 -20 l-14 -3 l32 0 Z" /><glyph glyph-name="" unicode="&#x5176;" d="M194 192 l0 15 l41 0 l0 -15 l12 0 l0 -32 l-12 0 l0 -104 l17 0 l0 -33 l-242 0 l0 33 l17 0 l0 88 q0 16 -12 16 l0 32 l12 0 l0 15 l41 0 l0 -15 l126 0 ZM173 73 l-105 0 l0 -17 l126 0 l0 3 q0 14 -21 14 ZM68 97 l126 0 l0 5 q0 15 -21 14 l-105 0 l0 -19 ZM68 141 l126 0 l0 4 q0 15 -21 15 l-105 0 l0 -19 ZM35 16 l43 0 l-11 -29 l100 27 q12 3 20 3 l15 0 q15 0 19 -7 l27 -44 l-50 0 l-14 24 q-2 6 -11 6 l-94 -28 q-10 -3 -21 -3 l-20 0 q-16 3 -13 18 l10 33 Z" /><glyph glyph-name="" unicode="&#x5212;" d="M38 127 l-28 0 l0 36 l21 0 l-8 44 l43 0 l8 -44 l32 0 l-15 34 l39 0 l20 -41 q-1 -28 -25 -29 l-45 0 l18 -51 l51 32 l0 -46 l-36 -24 l31 -72 l-46 0 l-21 52 l-62 -35 l0 45 l46 26 l-23 73 ZM165 198 l37 0 l0 -226 l-37 0 l0 226 ZM211 206 l41 0 l0 -216 q1 -26 -26 -24 l-15 0 l0 240 Z" /><glyph glyph-name="" unicode="&#x5237;" d="M10 174 q0 33 35 32 l81 0 q28 0 28 -30 l0 -32 l0 -25 l-108 0 l0 -129 q0 -25 -22 -25 l-14 0 l0 209 ZM155 -1 q0 -24 -26 -24 l-6 0 l0 -10 l-38 0 l0 92 q0 9 -7 9 l-2 0 l0 -91 l-22 0 l0 101 q0 22 22 22 l9 0 l0 10 l38 0 l0 -10 l9 0 q23 0 23 -23 l0 -76 ZM209 207 l39 0 l0 -218 q0 -24 -25 -24 l-14 0 l0 242 ZM165 199 l33 0 l0 -229 l-33 0 l0 229 ZM97 174 l-51 0 l0 -23 l69 0 l0 11 q0 12 -18 12 ZM132 7 l0 50 q0 9 -7 9 l-2 0 l0 -65 l3 0 q6 0 6 6 Z" /><glyph glyph-name="" unicode="&#x534e;" d="M109 51 l0 26 l24 0 q-12 6 -12 24 l0 20 l-26 -7 l0 41 l26 7 l0 45 l41 0 l0 -35 l80 23 l0 -39 l-80 -23 l0 -21 q0 -6 6 -6 l82 0 l0 -34 l-97 0 l0 -21 l99 0 l0 -12 q0 -21 -19 -22 l-80 0 l0 -52 l-44 0 l0 29 q0 22 -21 23 l-78 0 l0 34 l99 0 ZM96 206 q-21 -35 -46 -53 l26 0 l0 -65 q0 -19 -22 -19 l-19 0 l0 74 l-21 -9 l0 40 q22 12 38 32 l44 0 Z" /><glyph glyph-name="" unicode="&#x5370;" d="M10 164 q0 40 44 40 l66 0 l0 -19 q0 -19 -25 -19 l-42 0 l0 -61 l65 0 l0 -33 l-65 0 l0 -70 l67 0 l0 -32 l-110 0 l0 194 ZM187 14 l14 0 q7 0 7 6 l0 151 l-31 0 l0 -206 l-43 0 l0 239 l74 0 q42 0 41 -41 l0 -159 q0 -24 -25 -24 l-37 0 l0 34 Z" /><glyph glyph-name="" unicode="&#x5373;" d="M131 59 l-75 0 l0 -59 l30 0 q3 2 4 3 q2 3 2 6 l0 31 l41 0 l0 -74 l-41 0 l0 9 q-13 -8 -28 -9 l-24 0 q-27 0 -27 32 l0 174 q0 34 32 34 l54 0 q32 0 32 -33 l0 -114 ZM195 12 l7 0 q6 0 6 5 l0 142 q0 14 -11 14 l-11 0 l0 -208 l-43 0 l0 212 q0 30 34 30 l44 0 q27 0 28 -31 l0 -174 q-1 -25 -25 -25 l-29 0 l0 35 ZM56 147 l32 0 l0 15 q0 12 -14 12 l-18 0 l0 -27 ZM75 114 l-19 0 l0 -23 l32 0 l0 11 q0 12 -13 12 Z" /><glyph glyph-name="" unicode="&#x55b7;" d="M245 7 l-33 0 l37 -41 l-51 0 l-23 26 q-22 -30 -78 -27 l0 30 q43 -2 55 27 l0 41 l42 0 l0 -50 l13 0 l0 46 q0 15 -14 14 l-54 0 l0 -66 l-38 0 l0 82 q0 12 8 16 l0 4 q0 7 -11 7 l-11 0 l0 -151 l-76 0 l0 204 q-1 35 28 35 l22 0 q27 -2 26 -35 l0 -24 l22 0 l0 13 l35 0 l0 -13 l57 0 l0 13 l36 0 l0 -13 l15 0 l0 -29 l-15 0 l0 -11 q8 -3 8 -19 l0 -79 ZM152 155 q0 15 -19 14 l-38 0 l0 30 l57 0 l0 8 l42 0 l0 -8 l56 0 l0 -30 l-56 0 l0 -14 l-42 0 ZM40 170 l0 -171 l18 0 l0 162 q0 9 -9 9 l-9 0 ZM144 105 l57 0 l0 3 q0 8 -13 8 l-44 0 l0 -11 Z" /><glyph glyph-name="" unicode="&#x5728;" d="M104 155 q-27 -40 -55 -63 l19 0 l0 -127 l-42 0 l0 118 l-13 -7 l0 45 q29 17 38 34 l-41 0 l0 33 l61 0 l12 19 l45 0 l-9 -19 l133 0 l0 -33 l-148 0 ZM190 1 l61 0 l0 -17 q0 -19 -20 -19 l-142 0 l0 36 l60 0 l0 46 q0 25 -27 25 l-28 0 l0 36 l55 0 l0 31 l41 0 l0 -31 l56 0 l0 -36 l-56 0 l0 -71 Z" /><glyph glyph-name="" unicode="&#x5733;" d="M72 -1 l21 0 q3 0 6 3 q2 3 2 6 l0 199 l41 0 l0 -217 q1 -25 -28 -25 l-14 0 l0 19 q-4 -15 -21 -18 l-69 0 l0 33 l19 0 l0 117 q0 18 -12 18 l-7 0 l0 34 l19 0 l0 39 l43 0 l0 -39 l16 0 l0 -34 l-16 0 l0 -135 ZM210 207 l42 0 l0 -241 l-42 0 l0 241 ZM157 200 l39 0 l0 -232 l-39 0 l0 232 Z" /><glyph glyph-name="" unicode="&#x578b;" d="M10 -35 l0 33 l101 0 l0 7 q0 15 -24 15 l-65 0 l0 32 l89 0 l0 10 l41 0 l0 -10 l88 0 l0 -32 l-88 0 l0 -22 l100 0 l0 -14 q0 -19 -26 -19 l-216 0 ZM140 204 l0 -32 l-15 0 l0 -22 l17 0 l0 -31 l-17 0 l0 -47 l-39 0 l0 31 q0 16 -10 16 l-10 0 l-9 -48 l-41 0 l10 48 l-16 0 l0 31 l16 0 l0 22 l-13 0 l0 32 l127 0 ZM66 172 l0 -22 l20 0 l0 11 q0 12 -10 11 l-10 0 ZM156 201 l35 0 l0 -125 l-35 0 l0 125 ZM203 207 l41 0 l0 -110 q0 -8 -6 -17 q-7 -8 -19 -8 l-16 0 l0 135 Z" /><glyph glyph-name="" unicode="&#x57fa;" d="M10 -35 l0 31 l101 0 l0 5 q0 9 -20 8 l-69 0 l0 9 l-10 -2 l0 36 q1 0 2 1 q13 3 22 8 l-26 0 l0 29 l22 0 l0 64 q0 15 -10 14 l-11 0 l0 28 l21 0 l0 11 l42 0 l0 -11 l116 0 l0 11 l41 0 l0 -11 l19 0 l0 -28 l-19 0 l0 -78 l21 0 l0 -29 l-27 0 q10 -7 26 -8 l0 -36 l-10 2 l0 -10 l-89 0 l0 -13 l100 0 l0 -15 q0 -16 -20 -16 l-222 0 ZM171 61 l-77 0 q-10 -13 -31 -24 l48 0 l0 14 l41 0 l0 -14 l47 0 q-16 8 -28 24 ZM174 101 l-100 0 l0 -11 l116 0 l0 3 q0 9 -16 8 ZM174 135 l-100 0 l0 -10 l116 0 l0 2 q0 9 -16 8 ZM174 168 l-100 0 l0 -10 l116 0 l0 3 q0 7 -16 7 Z" /><glyph glyph-name="" unicode="&#x58a8;" d="M214 207 q29 0 29 -29 l0 -44 l-91 0 l0 -10 l91 0 l0 -19 l-91 0 l0 -11 l97 0 l0 -21 l-238 0 l0 21 l99 0 q0 11 -18 11 l-73 0 l0 19 l91 0 q0 10 -19 10 l-74 0 l0 42 q0 31 32 31 l165 0 ZM10 -35 l0 28 l100 0 q0 10 -20 10 l-75 0 l0 25 l95 0 l0 12 l42 0 l0 -12 l94 0 l0 -25 l-94 0 l0 -10 l98 0 l0 -11 q0 -17 -19 -17 l-221 0 ZM110 154 l0 14 q0 19 -21 19 l-31 0 l0 -33 l52 0 ZM152 187 l0 -33 l51 0 l0 13 q0 20 -26 20 l-25 0 ZM29 69 l41 0 l-15 -25 l-42 0 l16 25 ZM115 69 q6 0 12 -3 l15 -22 l-43 0 l-17 25 l33 0 ZM170 69 q8 0 12 -3 l15 -22 l-41 0 l-18 25 l32 0 ZM225 69 q8 0 12 -3 l15 -22 l-40 0 l-19 25 l32 0 ZM67 170 q0 6 5 12 q4 4 11 4 q6 0 11 -4 q4 -5 4 -12 q0 -6 -4 -11 q-5 -4 -11 -4 q-7 0 -11 4 q-5 5 -5 11 ZM161 170 q0 7 4 12 q5 4 11 4 q6 0 11 -4 q4 -5 4 -12 q0 -6 -4 -11 q-5 -4 -11 -4 q-6 0 -11 4 q-4 5 -4 11 Z" /><glyph glyph-name="" unicode="&#x5927;" d="M100 129 l-90 0 l0 38 l96 0 l0 40 l47 0 l0 -40 l99 0 l0 -38 l-95 0 q31 -67 91 -112 l0 -52 q-76 44 -117 124 q-43 -80 -116 -122 l0 51 q61 50 85 111 Z" /><glyph glyph-name="" unicode="&#x5b9a;" d="M52 156 l0 -12 l-42 0 l0 22 q0 26 32 26 l66 0 l0 13 l44 0 l0 -13 l70 0 q28 0 28 -28 l0 -20 l-41 0 l0 7 q0 6 -12 5 l-145 0 ZM24 81 l39 0 l-2 -52 q12 -27 26 -28 l24 0 l0 67 q0 25 -26 25 l-73 0 l0 38 l237 0 l0 -38 l-93 0 l0 -26 l92 0 l0 -36 l-92 0 l0 -30 l93 0 l0 -13 q0 -23 -23 -23 l-140 0 q-21 7 -28 26 l-2 -26 l-39 0 l7 116 Z" /><glyph glyph-name="" unicode="&#x5bf8;" d="M176 177 l0 30 l41 0 l0 -30 l35 0 l0 -33 l-35 0 l0 -154 q0 -9 -7 -16 q-6 -9 -18 -9 l-59 0 l0 33 l33 0 q6 1 8 3 q2 3 2 7 l0 101 q0 35 -37 35 l-129 0 l0 33 l166 0 ZM63 111 q10 0 16 -11 l27 -81 l-43 0 l-33 92 l33 0 Z" /><glyph glyph-name="" unicode="&#x5c06;" d="M87 -35 l-42 0 l0 53 l-34 -25 l0 51 l34 26 l0 48 l-35 0 l0 44 l35 0 l0 45 l42 0 l0 -242 ZM190 75 l0 12 q-2 0 -6 -1 q-3 0 -4 0 l-83 0 l0 34 l37 0 l-19 32 l45 0 l16 -26 q0 0 2 -1 q21 18 30 40 l-85 0 q-25 1 -25 19 l0 23 l47 0 l0 -10 l84 0 q29 -4 21 -35 q-16 -42 -45 -66 l28 0 l0 -21 l19 0 l0 -34 l-19 0 l0 -52 q-4 -24 -31 -23 l-36 0 l0 30 l18 0 q6 2 6 10 l0 19 q0 16 -16 16 l-75 0 l0 34 l91 0 ZM131 33 q9 -1 13 -6 l16 -47 l-40 0 l-19 53 l30 0 Z" /><glyph glyph-name="" unicode="&#x5c3a;" d="M202 207 q42 1 41 -44 l0 -79 l-45 0 l52 -119 l-52 0 l-53 119 l-88 0 l0 -94 q-1 -25 -27 -25 l-18 0 l0 197 q0 45 46 45 l144 0 ZM170 173 l-113 0 l0 -54 l142 0 l0 27 q0 27 -29 27 Z" /><glyph glyph-name="" unicode="&#x5dde;" d="M18 163 l28 0 l-7 -120 q0 -15 -10 -15 l-19 0 l8 135 ZM47 207 l43 0 l0 -183 q-6 -52 -63 -58 l-13 0 l0 36 q32 3 33 29 l0 176 ZM91 163 l29 0 l10 -128 l0 171 l42 0 l0 -241 l-42 0 l0 61 l-28 0 l-11 137 ZM172 163 l27 0 l11 -126 l0 170 l42 0 l0 -242 l-42 0 l0 62 l-27 0 l-11 136 Z" /><glyph glyph-name="" unicode="&#x5de5;" d="M243 201 l0 -36 l-90 0 l0 -155 l99 0 l0 -16 q0 -20 -23 -20 l-219 0 l0 36 l100 0 l0 125 q0 30 -28 30 l-66 0 l0 36 l227 0 Z" /><glyph glyph-name="" unicode="&#x5e74;" d="M250 196 l0 -37 l-82 0 l0 -37 l79 0 l0 -36 l-79 0 l0 -46 l84 0 l0 -19 q0 -17 -20 -17 l-64 0 l0 -39 l-44 0 l0 17 q0 22 -30 22 l-84 0 l0 36 l24 0 l0 48 q0 34 33 34 l57 0 l0 18 q0 20 -22 20 l-36 0 q-29 -34 -56 -48 l0 50 q22 17 34 45 l46 0 l-7 -11 l167 0 ZM74 40 l50 0 l0 24 q0 22 -22 22 l-28 0 l0 -46 Z" /><glyph glyph-name="" unicode="&#x5e7f;" d="M53 155 l0 -163 q1 -29 -26 -27 l-17 0 l0 183 q0 40 40 40 l68 0 l0 19 l45 0 l0 -19 l89 0 l0 -33 l-199 0 Z" /><glyph glyph-name="" unicode="&#x6295;" d="M112 108 l110 0 q32 -7 21 -42 l-26 -53 l31 -47 l-48 0 l-11 15 l-15 -11 q-24 -6 -38 -2 q-15 3 -25 19 q-14 27 4 57 q25 26 58 9 l15 -9 l15 29 l-91 0 l0 35 ZM80 -10 q0 -9 -7 -16 q-8 -9 -19 -9 l-36 0 l0 30 l10 0 q7 1 10 3 q2 4 1 59 l-29 -8 l0 39 l29 8 l0 28 q1 24 -20 25 l-8 0 l0 33 l28 0 l0 25 l41 0 l0 -25 l18 0 l0 -33 l-18 0 l0 -40 l18 5 l0 -39 l-18 -6 l0 -79 ZM234 153 q1 -7 7 -7 l8 0 l0 -33 l-30 0 q-24 0 -24 24 l0 32 l-36 0 l-5 -54 l-43 0 l8 67 q0 21 25 21 l64 0 q26 0 26 -21 l0 -29 ZM140 13 q0 -5 4 -8 q4 -3 10 -3 q9 2 18 11 q-9 9 -18 12 q-6 0 -10 -4 q-4 -3 -4 -8 Z" /><glyph glyph-name="" unicode="&#x65b9;" d="M82 155 l-4 -30 l132 0 q33 0 33 -35 l0 -101 q0 -24 -24 -24 l-63 0 l0 33 l37 0 q6 0 6 7 l0 68 q0 16 -18 16 l-104 0 l-14 -122 l-44 0 l20 189 l-29 0 l0 33 l99 0 l0 18 l44 0 l0 -18 l99 0 l0 -34 l-170 0 Z" /><glyph glyph-name="" unicode="&#x661f;" d="M64 207 l143 0 q36 0 37 -36 l0 -71 l-86 0 l0 -18 l91 0 l0 -27 l-91 0 l0 -15 l91 0 l0 -27 l-91 0 l0 -18 l94 0 l0 -10 q0 -20 -22 -20 l-218 0 l0 30 l104 0 l0 7 q0 11 -16 11 l-79 0 l0 27 l95 0 l0 5 q0 10 -17 10 l-50 0 q-15 -10 -39 -13 l0 34 q15 8 19 17 l37 0 l-4 -11 l54 0 l0 7 q0 12 -19 11 l-74 0 l0 72 q0 35 41 35 ZM64 166 l137 0 l0 4 q0 10 -16 10 l-121 0 l0 -14 ZM185 140 l-121 0 l0 -13 l137 0 l0 4 q0 9 -16 9 Z" /><glyph glyph-name="" unicode="&#x6708;" d="M245 156 l0 -166 q0 -25 -25 -25 l-20 0 l0 36 q0 22 -25 22 l-115 0 l0 -58 l-45 0 l0 192 q0 48 48 48 l141 0 q41 0 41 -49 ZM175 97 l-115 0 l0 -38 l140 0 l0 18 q0 20 -25 20 ZM175 171 l-115 0 l0 -38 l140 0 l0 21 q0 17 -25 17 Z" /><glyph glyph-name="" unicode="&#x6761;" d="M31 22 l43 0 l-13 -55 l-43 0 l13 55 ZM249 66 l0 -35 l-98 0 l0 -66 l-43 0 l0 47 q0 19 -24 19 l-74 0 l0 35 l98 0 l0 14 l42 0 l0 -14 l99 0 ZM182 23 l27 0 q15 0 21 -12 l15 -42 l-42 0 l-21 54 ZM53 123 q0 -3 7 -6 q8 -3 15 -3 q11 0 18 2 q6 2 18 6 q-12 5 -18 6 q-7 3 -18 3 q-7 0 -15 -3 q-7 -2 -7 -5 ZM39 207 l40 0 l-4 -7 l155 0 q21 -6 14 -32 l-56 -42 q15 -5 32 -7 l32 0 l0 -35 l-40 0 q-32 4 -46 10 l-18 8 l-38 -15 q-26 -6 -50 -3 q-19 0 -36 11 q-23 24 -2 48 q9 12 34 15 q27 4 55 -1 l41 -11 l32 25 l-128 0 q-13 -10 -42 -24 l0 38 q13 9 25 22 Z" /><glyph glyph-name="" unicode="&#x677f;" d="M207 113 l-52 0 l0 -11 l25 0 q10 1 13 -7 l4 -10 l10 28 ZM118 171 q0 32 31 33 l95 0 l0 -16 q1 -20 -20 -20 l-67 0 l0 -22 l70 0 q26 -4 19 -34 l-25 -73 l31 -73 l-38 0 l-12 30 l-9 -22 q-3 -8 -14 -8 l-27 0 l27 71 l-17 41 l-7 0 l0 -94 q-2 -17 -22 -17 l-15 0 l0 204 ZM112 153 l-31 0 l0 -188 l-37 0 l0 159 q0 27 -22 29 l-13 0 l0 33 l35 0 l0 20 l37 0 l0 -20 l31 0 l0 -33 ZM11 135 l11 0 q14 -1 14 -28 l0 -112 q0 -15 -13 -19 l-12 0 l0 159 ZM89 70 q0 21 3 36 q3 16 8 16 q4 0 8 -16 q3 -15 3 -36 q0 -22 -3 -37 q-4 -16 -8 -16 q-5 0 -8 16 q-3 15 -3 37 Z" /><glyph glyph-name="" unicode="&#x6807;" d="M123 201 l118 0 l0 -34 l-118 0 l0 34 ZM153 91 l-4 -121 l-37 0 l6 121 l35 0 ZM209 90 l21 0 q13 1 16 -14 l5 -105 l-37 0 l-5 119 ZM250 139 l0 -34 l-49 0 l0 -138 l-40 0 l0 118 q-1 21 -21 20 l-24 0 l0 34 l134 0 ZM116 154 l-32 0 l0 -189 l-39 0 l0 163 q0 25 -20 26 l-16 0 l0 33 l36 0 l0 20 l39 0 l0 -20 l32 0 l0 -33 ZM11 137 l11 0 q15 -3 15 -28 l0 -113 q0 -16 -13 -19 l-13 0 l0 160 ZM90 71 q0 21 3 37 q3 15 8 15 q5 0 8 -15 q3 -16 3 -37 q0 -22 -3 -37 q-3 -16 -8 -16 q-5 0 -8 16 q-3 15 -3 37 Z" /><glyph glyph-name="" unicode="&#x6b63;" d="M70 2 l42 0 l0 139 q0 26 -27 26 l-73 0 l0 35 l233 0 l0 -35 l-88 0 l0 -56 l85 0 l0 -38 l-85 0 l0 -71 l90 0 l0 -15 q0 -20 -18 -20 l-172 0 q-41 0 -41 41 l0 128 l43 0 l0 -126 q0 -8 11 -8 Z" /><glyph glyph-name="" unicode="&#x6bcf;" d="M109 45 l48 0 l10 -19 l35 0 l0 15 q0 14 -16 14 l-122 0 l0 -29 l56 0 l-11 19 ZM185 117 l-121 0 l0 -29 l48 0 l-9 15 l48 0 l8 -15 l43 0 l0 15 q0 14 -17 14 ZM57 148 l154 0 q32 0 32 -33 l0 -27 l9 0 l0 -33 l-9 0 l0 -29 l9 0 l0 -31 l-9 0 l0 -5 q0 -25 -24 -25 l-53 0 l0 18 l29 0 q7 0 7 6 l0 6 l-143 0 q-36 0 -36 29 l0 31 l-13 0 l0 33 l13 0 l0 29 q0 31 34 31 ZM46 160 q-25 1 -25 26 l0 21 l43 0 l0 -17 l187 0 l0 -30 l-205 0 Z" /><glyph glyph-name="" unicode="&#x6c49;" d="M92 203 l131 0 q33 -1 28 -40 l-32 -105 l33 -90 l-43 0 l-15 36 q-13 -23 -26 -31 q-20 -12 -39 -3 q-19 8 -33 38 q-18 54 1 93 q12 25 29 34 q17 9 36 0 q11 -6 18 -16 l10 -14 l16 59 l-114 0 l0 39 ZM126 52 q1 -12 5 -22 q4 -10 9 -15 q6 -6 12 -1 q6 5 14 20 l7 19 l-7 16 q-9 15 -17 21 q-9 7 -19 -11 q-4 -15 -4 -27 ZM68 25 l-16 -60 l-42 0 l18 65 q12 48 -17 67 l0 55 q75 -42 57 -127 ZM16 182 q0 11 8 18 q8 7 18 7 q9 0 17 -7 q9 -7 8 -18 q1 -9 -8 -17 q-8 -8 -17 -8 q-10 0 -18 8 q-8 8 -8 17 Z" /><glyph glyph-name="" unicode="&#x6df1;" d="M250 91 l0 -33 l-64 0 l0 -93 l-40 0 l0 69 q-1 24 -26 24 l-38 0 l0 33 l64 0 l0 21 l39 0 l0 -21 l65 0 ZM51 -35 l-41 0 l17 82 q7 43 -16 54 l0 43 q69 -14 53 -113 l-13 -66 ZM221 207 q27 0 27 -25 l0 -19 l-42 0 l0 12 l-87 0 l0 -12 l-41 0 l0 17 q0 27 32 27 l111 0 ZM131 48 l-8 -83 l-39 0 l10 83 l37 0 ZM199 48 l25 0 q14 -1 16 -12 l9 -69 l-37 0 l-13 81 ZM168 159 l38 0 q12 -24 43 -24 l0 -35 q-63 3 -81 59 ZM79 101 l0 34 q30 3 39 24 l41 0 q-23 -58 -80 -58 ZM12 182 q1 10 7 16 q7 7 17 7 q10 0 16 -7 q8 -6 8 -16 q0 -11 -8 -17 q-6 -7 -16 -7 q-10 0 -17 7 q-6 6 -7 17 Z" /><glyph glyph-name="" unicode="&#x6e05;" d="M81 99 l0 25 l64 0 l0 4 q0 8 -16 8 l-40 0 l0 23 l56 0 l0 3 q0 7 -16 7 l-47 0 l0 28 l63 0 l0 10 l43 0 l0 -10 l62 0 l0 -28 l-62 0 l0 -10 l60 0 l0 -23 l-60 0 l0 -12 l64 0 l0 -25 l-171 0 ZM219 90 q29 0 29 -28 l0 -80 q0 -17 -20 -17 l-23 0 l0 8 q0 16 -15 16 l-61 0 l0 -24 l-43 0 l0 95 q0 30 31 30 l102 0 ZM190 25 l-61 0 l0 -12 l76 0 l0 3 q0 9 -15 9 ZM129 48 l76 0 l0 4 q-1 8 -15 8 l-61 0 l0 -12 ZM50 -33 l-40 0 l16 66 q14 54 -15 65 l0 45 q74 -18 54 -116 l-15 -60 ZM17 183 q0 10 7 16 q7 6 16 6 q9 0 16 -6 q6 -6 6 -16 q0 -9 -6 -16 q-7 -6 -16 -6 q-9 0 -16 6 q-7 7 -7 16 Z" /><glyph glyph-name="" unicode="&#x7247;" d="M12 205 l45 0 l0 -39 l81 0 l0 41 l47 0 l0 -41 l63 0 l0 -33 l-191 0 l0 -51 l142 0 q37 1 37 -38 l0 -79 l-45 0 l0 66 q0 18 -19 18 l-115 0 l0 -59 q-1 -9 -7 -16 q-7 -9 -21 -9 l-17 0 l0 240 Z" /><glyph glyph-name="" unicode="&#x751f;" d="M11 -35 l0 33 l104 0 l0 31 q0 27 -28 27 l-67 0 l0 33 l95 0 l0 28 q0 22 -30 22 l-30 0 q-15 -23 -45 -41 l0 53 q19 19 26 51 l42 0 l-10 -29 l47 0 l0 34 l44 0 l0 -34 l91 0 l0 -34 l-91 0 l0 -50 l87 0 l0 -33 l-87 0 l0 -58 l93 0 l0 -14 q0 -19 -22 -19 l-219 0 Z" /><glyph glyph-name="" unicode="&#x7535;" d="M243 26 l-93 0 l0 -21 q0 -6 6 -6 l96 0 l0 -12 q0 -22 -23 -22 l-92 0 q-33 0 -33 32 l0 29 l-94 0 l0 121 q0 35 35 35 l59 0 l0 25 l46 0 l0 -25 l58 0 q34 0 35 -36 l0 -120 ZM104 60 l0 13 q1 15 -20 14 l-30 0 l0 -27 l50 0 ZM104 121 l0 13 q1 15 -20 14 l-30 0 l0 -27 l50 0 ZM150 148 l0 -27 l49 0 l0 13 q0 15 -19 14 l-30 0 ZM150 87 l0 -27 l49 0 l0 13 q0 14 -19 14 l-30 0 Z" /><glyph glyph-name="" unicode="&#x7684;" d="M132 164 l0 -199 l-111 0 l0 160 l-11 -11 l0 49 q17 18 24 44 l40 0 l-4 -14 l34 0 q28 0 28 -29 ZM79 65 l-21 0 l0 -67 l36 0 l0 52 q0 15 -15 15 ZM58 98 l36 0 l0 46 q0 15 -15 15 l-21 0 l0 -61 ZM252 -6 q0 -29 -30 -29 l-59 0 l0 33 l41 0 q6 0 6 7 l0 141 q0 13 -13 13 l-13 0 q-21 -24 -41 -35 l0 44 q14 18 21 39 l38 0 l-5 -14 l26 0 q29 0 29 -30 l0 -169 ZM173 114 q6 0 11 -9 l16 -67 l-37 0 l-18 76 l28 0 Z" /><glyph glyph-name="" unicode="&#x771f;" d="M237 33 l15 0 l0 -25 l-242 0 l0 25 l16 0 l0 96 q0 32 35 30 l35 0 l4 9 l-88 0 l0 30 l96 0 l3 9 l45 0 l-3 -9 l98 0 l0 -30 l-106 0 l-2 -9 l59 0 q35 1 35 -29 l0 -97 ZM176 42 l-105 0 l0 -9 l120 0 l0 2 q0 7 -15 7 ZM176 72 l-105 0 l0 -9 l120 0 l0 2 q0 7 -15 7 ZM71 93 l120 0 l0 2 q0 6 -15 6 l-105 0 l0 -8 ZM176 131 l-105 0 l0 -9 l120 0 l0 2 q0 7 -15 7 ZM33 3 l47 0 l-7 -17 l82 16 q6 1 16 2 q5 1 8 1 l23 0 q15 -1 18 -6 l31 -33 l-58 0 l-18 18 q-3 4 -13 4 l-82 -19 q-10 -4 -21 -4 l-18 0 q-18 0 -18 16 l10 22 Z" /><glyph glyph-name="" unicode="&#x7b80;" d="M189 66 l0 -88 l-121 0 l0 86 q0 27 30 27 l62 0 q29 0 29 -25 ZM133 205 l0 -28 l-28 0 q28 -36 35 -10 l0 11 q0 27 33 27 l76 0 l0 -28 l-19 0 l19 -34 l-39 0 l-21 33 l-11 0 l-2 -19 q-5 -14 -25 -14 l-46 0 q-16 1 -20 4 l-28 30 l-7 0 l0 -21 q-2 -13 -26 -13 l-13 0 l0 34 q0 28 32 28 l90 0 ZM245 103 l0 -120 q-1 -18 -20 -18 l-22 0 l0 120 q0 18 -19 17 l-105 0 l0 34 l130 0 q35 0 36 -33 ZM16 99 l42 0 l0 -134 l-42 0 l0 134 ZM25 122 q0 7 6 12 q6 6 13 5 q7 1 13 -5 q6 -5 6 -12 q0 -9 -6 -13 q-6 -5 -13 -5 q-7 0 -13 5 q-6 4 -6 13 ZM136 20 l-30 0 l0 -14 l45 0 l0 3 q0 11 -15 11 ZM106 48 l45 0 l0 3 q0 11 -15 11 l-30 0 l0 -14 Z" /><glyph glyph-name="" unicode="&#x7ebf;" d="M75 -31 l-61 0 l0 34 l85 0 l0 -15 q0 -19 -24 -19 ZM60 51 l35 0 l0 -34 l-60 0 q-29 1 -22 34 l36 60 l-16 0 q-32 5 -19 38 l36 57 l44 0 l-38 -62 l40 0 l0 -29 l-36 -64 ZM252 121 l0 -33 l-49 0 l9 -33 l39 18 l0 -43 l-25 -13 l18 -52 l-46 0 l-12 36 l-62 -26 l0 43 l51 21 l-16 49 l-57 0 l0 33 l49 0 l-4 20 l-43 0 l0 32 l36 0 l-7 34 l42 0 l6 -33 l24 0 l-7 28 l38 0 l10 -34 q2 -24 -23 -27 l-35 0 l5 -20 l59 0 Z" /><glyph glyph-name="" unicode="&#x80fd;" d="M191 27 l0 -22 q0 -6 7 -6 l54 0 l0 -17 q0 -16 -16 -16 l-57 0 q-29 0 -29 29 l0 85 l41 0 l0 -20 l59 0 l0 -33 l-59 0 ZM191 152 l0 -22 q0 -6 7 -6 l53 0 l0 -33 l-72 0 q-29 0 -29 29 l0 86 l41 0 l0 -21 l58 0 l0 -33 l-58 0 ZM14 170 l29 37 l46 0 l-30 -38 l29 0 q13 0 10 6 l-7 14 l39 0 l10 -23 q7 -25 -22 -28 l-83 0 q-28 3 -21 32 ZM137 -16 q0 -18 -19 -18 l-20 0 l0 16 q1 14 -16 14 l-29 0 l0 -28 l-39 0 l0 128 q0 31 29 31 l65 0 q30 1 29 -29 l0 -114 ZM82 46 l-29 0 l0 -22 l45 0 l0 11 q0 11 -16 11 ZM82 98 l-29 0 l0 -24 l45 0 l0 13 q0 11 -16 11 Z" /><glyph glyph-name="" unicode="&#x827a;" d="M178 192 l0 15 l41 0 l0 -15 l33 0 l0 -34 l-33 0 l0 -13 l-41 0 q1 13 -20 13 l-74 0 l0 -13 l-41 0 q0 13 -16 13 l-17 0 l0 34 l33 0 l0 15 l41 0 l0 -15 l94 0 ZM220 104 l-125 -99 q-11 -7 13 -7 l140 0 l0 -14 q0 -19 -21 -19 l-178 0 q-21 0 -25 15 q-6 15 5 25 l119 97 l-126 0 l0 33 l179 0 q27 0 19 -31 Z" /><glyph glyph-name="" unicode="&#x8981;" d="M118 165 l26 0 l0 3 q0 9 -14 9 l-12 0 l0 -12 ZM144 114 l0 10 q0 12 -13 11 l-13 0 l0 -21 l26 0 ZM183 135 l0 -21 l20 0 l6 0 l0 8 q0 13 -13 13 l-13 0 ZM79 114 l0 10 q0 12 -13 11 l-13 0 l0 -21 l26 0 ZM191 41 l-119 0 l0 -6 q22 -16 41 -20 q20 -3 39 0 q20 5 39 20 l0 6 ZM252 207 l0 -30 l-69 0 l0 -12 l26 0 q37 0 37 -32 l0 -49 l-14 0 l0 -10 l20 0 l0 -33 l-20 0 l0 -22 q-23 -17 -44 -23 q30 -4 64 -2 l0 -29 q-57 -2 -100 6 l-21 6 l-33 -6 q-24 -6 -82 -6 l0 31 q31 -2 52 2 q-16 8 -37 24 l0 19 l-21 0 l0 33 l21 0 l0 10 l-14 0 l0 15 l0 33 q0 33 36 33 l26 0 l0 3 q0 9 -15 9 l-53 0 l0 30 l241 0 ZM191 74 l0 10 l-119 0 l0 -10 l119 0 Z" /><glyph glyph-name="" unicode="&#x89c4;" d="M202 61 q-3 -21 -3 -22 l19 0 l0 120 q0 16 -15 16 l-50 0 l0 -139 l-32 0 l0 134 q-2 38 37 37 l57 0 q36 -2 35 -37 l0 -134 l-24 0 l0 -28 q0 -11 8 -11 l18 0 l0 -31 l-38 0 q-22 0 -24 22 l0 32 q-26 -46 -67 -55 l-37 0 l-17 51 l-12 -50 l-41 0 l25 109 l-31 0 l0 34 l35 0 l0 16 q0 17 -17 17 l-16 0 l0 33 l33 0 l0 31 l39 0 l0 -31 l29 0 l0 -33 l-29 0 l0 -33 l30 0 l0 -34 l-33 0 l-3 -21 l14 0 l31 -87 l0 37 q35 18 43 57 l0 98 l36 0 l0 -98 Z" /><glyph glyph-name="" unicode="&#x89c6;" d="M202 61 q-3 -21 -4 -22 l18 0 l0 120 q0 16 -14 16 l-48 0 l0 -139 l-35 0 l0 132 q0 39 35 39 l60 0 q36 0 36 -37 l0 -134 l-25 0 l0 -28 q0 -11 9 -11 l18 0 l0 -32 l-37 0 q-25 1 -25 27 l0 28 q-28 -47 -74 -54 l0 37 q40 16 49 58 l0 98 l37 0 l0 -98 ZM56 80 l20 0 l0 -99 q0 -16 -17 -16 l-23 0 l0 98 q-1 -1 -2 -2 q-7 -6 -23 -17 l0 46 q30 27 52 56 l-53 0 l0 34 l31 0 l0 27 l38 0 l0 -27 l20 0 q18 -14 7 -35 q-14 -23 -22 -34 l12 0 q9 0 11 -7 l9 -79 l-32 0 l-8 76 q-4 -4 -11 -12 q-6 -6 -9 -9 Z" /><glyph glyph-name="" unicode="&#x8ba1;" d="M154 134 l0 73 l41 0 l0 -73 l57 0 l0 -34 l-57 0 l0 -135 l-41 0 l0 110 q0 25 -25 25 l-38 0 l0 34 l63 0 ZM77 5 q0 -6 6 -6 l22 0 l0 -34 l-45 0 q-24 0 -25 25 l0 113 l-25 0 l0 34 l37 0 q30 0 30 -29 l0 -103 ZM26 183 q0 10 7 16 q7 7 17 7 q9 0 17 -7 q7 -6 7 -16 q0 -10 -7 -17 q-8 -6 -17 -7 q-10 1 -17 7 q-7 7 -7 17 Z" /><glyph glyph-name="" unicode="&#x8bbe;" d="M232 101 q24 -7 14 -36 l-38 -52 q9 -5 22 -8 l21 -2 l0 -36 l-22 0 q-27 4 -43 17 q-15 -17 -32 -19 q-63 -1 -55 59 q15 41 60 32 l25 -14 l15 23 l-97 0 l0 36 l130 0 ZM145 172 l-4 -58 l-41 0 l6 64 q0 28 27 28 l78 0 q27 0 27 -28 l0 -23 q0 -6 6 -7 l8 0 l0 -34 l-30 0 q-23 1 -23 25 l0 33 l-54 0 ZM10 113 l0 34 l36 0 q31 0 31 -31 l0 -115 l17 0 l0 -35 l-35 0 q-25 1 -26 26 l0 109 q0 12 -11 12 l-12 0 ZM21 184 q1 10 7 16 q8 7 18 7 q9 0 17 -7 q7 -6 7 -16 q0 -10 -7 -17 q-8 -7 -17 -7 q-10 0 -18 7 q-6 7 -7 17 ZM139 23 q-12 -6 -6 -19 q9 -8 20 -3 l11 11 q-14 17 -25 11 Z" /><glyph glyph-name="" unicode="&#x8d85;" d="M10 88 l36 0 l0 -73 q0 -12 10 -15 l0 82 q0 18 -23 18 l-23 0 l0 33 l38 0 l0 13 q0 13 -17 13 l-19 0 l0 34 l36 0 l0 14 l42 0 l0 -14 l30 0 l0 -34 l-30 0 l0 -26 l31 0 l0 -33 l-26 0 l0 -29 l24 0 l0 -34 l-24 0 l0 -39 l157 0 l0 -11 q0 -22 -21 -22 l-163 0 q-17 3 -22 16 l0 -16 l-36 0 l0 123 ZM247 68 l0 -59 l-115 1 l0 58 q0 32 32 30 l56 0 q27 0 27 -30 ZM214 204 q34 0 34 -28 l0 -55 q0 -15 -19 -16 l-20 0 l0 56 q0 12 -9 12 l-7 0 q-19 -51 -62 -70 l0 42 q15 11 22 28 l-23 0 l0 31 l84 0 ZM198 66 l-28 0 l0 -24 l40 0 l0 13 q-1 11 -12 11 Z" /><glyph glyph-name="" unicode="&#x8fd8;" d="M233 125 l16 -93 l-42 0 l-13 82 q-3 10 -7 10 l-4 0 l0 -117 l-43 0 l0 129 l-22 -104 l-44 0 l33 142 l-32 0 l0 33 l175 0 l0 -33 l-101 0 l-6 -23 l62 0 q24 0 28 -26 ZM64 13 q2 -11 11 -14 l177 0 l0 -14 q0 -20 -24 -20 l-141 0 q-15 3 -23 15 q0 -15 -20 -15 l-20 0 l0 148 l-14 0 l0 33 l29 0 q25 0 25 -27 l0 -106 ZM17 183 q0 9 7 16 q7 7 16 7 q10 0 17 -7 q6 -7 6 -16 q0 -9 -6 -16 q-7 -7 -17 -7 q-9 0 -16 7 q-7 7 -7 16 Z" /><glyph glyph-name="" unicode="&#x8fd9;" d="M73 159 l0 34 l61 0 l0 14 l42 0 l0 -14 l72 0 l0 -34 l-22 0 q-13 -44 -37 -77 l60 -73 l-51 0 l-34 42 q-39 -33 -84 -43 l0 41 q29 9 56 34 l-45 63 l46 0 l25 -32 q12 20 21 45 l-110 0 ZM64 14 q1 -10 11 -15 l177 0 l0 -14 q0 -20 -24 -20 l-141 0 q-15 3 -23 15 q0 -15 -20 -15 l-20 0 l0 148 l-14 0 l0 34 l29 0 q25 0 25 -28 l0 -105 ZM17 183 q0 10 7 16 q7 7 16 7 q10 0 17 -7 q6 -6 6 -16 q0 -9 -6 -16 q-7 -6 -17 -7 q-9 1 -16 7 q-7 7 -7 16 Z" /><glyph glyph-name="" unicode="&#x94fa;" d="M252 -17 q-1 -18 -18 -18 l-17 0 l0 30 q0 13 -9 13 l-10 0 l0 -43 l-39 0 l0 26 q0 17 -11 17 l-7 0 l0 -43 l-33 0 l0 144 q0 31 28 31 l23 0 q0 14 -12 14 l-38 0 l0 33 l50 0 l0 20 l39 0 l0 -20 l18 0 l-6 14 l34 0 l8 -22 q1 -25 -23 -25 l-31 0 l0 -14 l24 0 q29 0 30 -29 l0 -128 ZM97 142 l0 -36 l-20 0 l0 -29 l22 0 l0 -36 l-22 0 l0 -36 q0 -7 6 -7 l16 0 l0 -33 l-39 0 q-18 3 -20 28 l0 26 q0 22 -20 22 l-10 0 l0 36 l30 0 l0 12 q0 18 -17 17 l-9 0 l0 36 l83 0 ZM12 204 l38 0 l0 -20 l48 0 l0 -33 l-66 0 q-20 3 -20 27 l0 26 ZM198 57 l0 -18 l20 0 l0 9 q0 9 -10 9 l-10 0 ZM198 106 l0 -18 l20 0 l0 9 q0 9 -10 9 l-10 0 ZM159 39 l0 9 q0 9 -8 9 l-10 0 l0 -18 l18 0 ZM159 88 l0 9 q0 9 -8 9 l-10 0 l0 -18 l18 0 Z" /><glyph glyph-name="" unicode="&#x9762;" d="M252 207 l0 -34 l-94 0 l-6 -14 l63 0 q27 0 29 -37 l0 -157 l-227 0 l0 159 q1 35 34 35 l54 0 l6 14 l-101 0 l0 34 l242 0 ZM185 126 l0 -129 l18 0 l0 113 q0 16 -12 16 l-6 0 ZM76 -3 l0 113 q0 16 -11 16 l-6 0 l0 -129 l17 0 ZM145 104 l0 11 q0 12 -15 11 l-15 0 l0 -22 l30 0 ZM145 -3 l0 11 q0 10 -15 10 l-15 0 l0 -21 l30 0 ZM145 51 l0 10 q0 12 -15 11 l-15 0 l0 -21 l30 0 Z" /><glyph glyph-name="" unicode="&#x9ad8;" d="M218 86 q33 1 33 -32 l0 -65 q0 -24 -21 -24 l-20 0 l0 71 q0 21 -19 21 l-136 0 l0 -92 l-41 0 l0 88 q0 33 31 33 l173 0 ZM48 159 l167 0 q28 0 28 -26 l0 -36 l-223 0 l0 36 q0 26 28 26 ZM194 -5 l0 -27 l-122 0 l0 53 q0 24 28 24 l67 0 q27 0 27 -27 l0 -23 ZM152 207 l0 -8 l100 0 l0 -30 l-242 0 l0 30 l99 0 l0 8 l43 0 ZM189 134 l-127 0 l0 -13 l139 0 l0 4 q0 9 -12 9 ZM141 16 l-29 0 l0 -19 l42 0 l0 7 q0 12 -13 12 Z" /><glyph glyph-name="" unicode="&#xff0c;" d="M49 -41 l-16 21 q27 13 29 33 l-23 0 l0 52 l53 0 l0 -43 q2 -41 -43 -63 Z" /></font>
</defs>
</svg>
