<?xml version="1.0" standalone="no"?><!DOCTYPE svg PUBLIC "-//W3C//DTD SVG 1.1//EN" "http://www.w3.org/Graphics/SVG/1.1/DTD/svg11.dtd" ><svg xmlns="http://www.w3.org/2000/svg"><metadata></metadata><defs><font id="Founder:FZZhanBiHei-M22S	Regular" horiz-adv-x="256"><font-face font-family="FZZhanBiHei-M22S" font-weight="400" font-stretch="normal" units-per-em="256" panose-1="2 0 0 0 0 0 0 0 0 0" ascent="229" descent="-62" x-height="0" bbox="-6 -37 255 214" underline-thickness="12" underline-position="-50" unicode-range="U+002e-ff0c" /><missing-glyph horiz-adv-x="256"  /><glyph glyph-name="" unicode="." d="M8 12 q2 14 15 15 q14 -1 15 -15 q-1 -13 -15 -14 q-14 1 -15 14 Z" /><glyph glyph-name="" unicode="/" d="M72 185 q8 -2 3 -16 q-38 -124 -59 -177 q-6 3 -16 1 q19 55 59 183 q4 12 13 9 Z" /><glyph glyph-name="" unicode="0" d="M63 12 q34 1 36 77 q2 76 -31 77 q-34 -3 -37 -77 q0 -74 32 -77 ZM65 -6 q-62 2 -65 95 q3 93 65 95 q61 -3 65 -95 q-4 -92 -65 -95 Z" /><glyph glyph-name="" unicode="1" d="M80 159 q2 -45 2 -92 q0 -45 -1 -69 q-16 3 -31 -1 q3 80 2 145 q0 4 -4 2 q-11 -3 -14 5 q-4 9 14 13 q3 1 3 4 q0 12 11 14 q18 0 18 -21 Z" /><glyph glyph-name="" unicode="2" d="M120 25 l5 -11 q-46 -18 -100 -13 q-31 7 -16 29 q49 48 73 100 q17 36 -2 38 q-16 2 -49 -22 q-20 -13 -24 3 q-1 12 14 18 q34 18 72 13 q30 -7 26 -37 q-14 -51 -67 -110 q-4 -4 -3 -7 q2 -3 7 -4 q22 -5 64 3 Z" /><glyph glyph-name="" unicode="5" d="M121 168 l3 -9 q-40 0 -69 -9 q-4 -2 -9 -2 q0 -9 -1 -24 q0 -2 0 -2 q-3 -10 6 -9 q75 10 74 -62 q-5 -57 -70 -57 q-31 2 -53 19 q6 16 6 32 q27 -20 51 -21 q34 1 36 36 q-3 37 -59 25 q-21 -5 -22 13 q2 39 1 68 q-1 13 12 14 q14 0 18 -12 q1 0 3 1 q1 0 2 0 q34 3 71 -1 Z" /><glyph glyph-name="" unicode="6" d="M41 106 q13 10 26 9 q53 -1 53 -59 q-2 -57 -57 -59 q-52 1 -56 64 q-5 101 67 120 q14 4 19 -9 q4 -14 -12 -19 q-36 -11 -40 -47 ZM38 56 q1 -40 23 -41 q25 4 29 41 q0 39 -21 41 q-27 -3 -31 -41 Z" /><glyph glyph-name="" unicode="8" d="M67 86 q-31 -3 -33 -37 q-1 -36 27 -37 q28 2 32 37 q1 36 -26 37 ZM63 -6 q-57 3 -60 60 q1 29 26 45 q-18 13 -18 37 q3 47 52 50 q50 -3 53 -50 q0 -25 -18 -37 q25 -15 26 -45 q-4 -56 -61 -60 ZM68 168 q-24 -2 -27 -31 q-1 -28 19 -29 q20 1 26 29 q4 30 -18 31 Z" /><glyph glyph-name="" unicode="&lt;" d="M103 161 q-27 -22 -71 -66 q30 -42 77 -99 q-20 -2 -32 -8 q-51 63 -75 96 q-6 14 2 25 q22 23 72 69 q15 14 24 12 q9 -3 11 -11 q1 -10 -8 -18 Z" /><glyph glyph-name="" unicode="&gt;" d="M42 179 q46 -43 74 -71 q14 -15 0 -31 q-42 -54 -71 -89 q-16 5 -33 4 q21 28 78 100 q-14 13 -67 63 q6 -5 -10 10 q-10 15 2 22 q12 6 27 -8 Z" /><glyph glyph-name="" unicode="d" d="M40 151 q-1 -31 0 -56 q0 -21 2 -64 q29 -1 47 11 q24 21 19 83 q-4 33 -28 35 q-18 2 -40 -9 ZM42 10 l0 -13 q-12 2 -30 0 q-4 77 -1 168 q-2 22 15 20 q14 2 14 -13 q24 6 46 6 q41 -3 51 -43 q11 -73 -25 -107 q-23 -18 -70 -18 Z" /><glyph glyph-name="" unicode="e" d="M119 24 l6 -10 q-33 -15 -70 -17 q-48 -3 -51 44 q-4 37 4 126 q1 20 17 19 q11 -1 12 -10 q2 0 6 0 q57 5 76 4 l3 -7 q-45 -6 -83 -19 q-5 -33 -5 -54 q42 5 71 4 l1 -11 q-35 -1 -73 -14 q0 -8 0 -17 q1 -43 25 -45 q25 -5 61 7 Z" /><glyph glyph-name="" unicode="g" d="M135 105 l2 -8 q-2 0 -8 -1 q-5 0 -8 -1 q3 -3 4 -12 q3 -28 1 -86 q-17 3 -31 0 q0 2 1 8 q0 5 0 7 q-13 -8 -30 -8 q-56 3 -58 84 q2 82 79 91 q15 2 32 -2 q15 -5 15 -16 q-3 -18 -19 -15 q-15 4 -29 2 q-46 -4 -47 -57 q0 -58 31 -65 q15 -1 26 9 q0 26 -2 52 q0 1 0 2 q-9 -1 -16 -6 q-14 -5 -17 4 q-1 12 13 15 q29 5 61 3 ZM107 52 q-1 -1 -1 -3 q0 2 1 3 Z" /><glyph glyph-name="" unicode="l" d="M108 26 l6 -10 q-29 -17 -57 -17 q-46 -3 -51 44 q-4 34 4 120 q2 21 18 19 q15 0 12 -21 q-5 -55 -4 -97 q-1 -44 24 -46 q19 -3 48 8 Z" /><glyph glyph-name="" unicode="o" d="M77 15 q41 3 43 75 q2 73 -37 74 q-41 -3 -44 -74 q2 -73 38 -75 ZM80 -3 q-68 2 -72 93 q4 90 72 92 q67 -3 71 -92 q-4 -91 -71 -93 Z" /><glyph glyph-name="" unicode="i" d="M7 157 q1 16 18 17 q16 -1 17 -17 q-1 -16 -17 -17 q-17 1 -18 17 ZM42 -3 q-16 1 -31 0 q3 53 0 106 q0 16 16 16 q14 0 14 -13 q6 -49 1 -109 Z" /><glyph glyph-name="" unicode="m" d="M41 1 q-15 0 -31 -3 q5 55 0 114 q-1 17 17 17 q12 -1 13 -15 q0 -1 1 -3 q0 -2 0 -2 q9 11 23 11 q25 1 35 -16 q15 17 37 17 q41 0 44 -48 q4 -48 1 -71 q-15 3 -31 0 q2 23 0 69 q-2 29 -18 30 q-22 0 -24 -16 q9 -45 5 -84 q-16 2 -32 0 q3 35 0 68 q-2 30 -18 31 q-13 0 -21 -11 q3 -51 -1 -88 Z" /><glyph glyph-name="" unicode="×" d="M166 122 l9 -9 q-14 -22 -29 -39 q12 -12 30 -27 l-9 -9 q-7 5 -20 14 q-8 6 -12 9 q-9 -9 -20 -18 q-14 -13 -24 -2 q-6 11 10 21 q9 6 18 13 q-2 2 -7 7 q-4 3 -13 13 q-13 16 -1 26 q11 6 20 -10 q7 -12 16 -23 q15 13 32 34 Z" /><glyph glyph-name="" unicode="&#x3002;" d="M69 -16 l-4 -12 q-1 0 -2 0 q-18 1 -19 28 q1 16 10 22 q5 2 9 3 q-9 -8 -10 -23 q-1 -19 16 -18 ZM59 15 l9 10 q17 -9 16 -24 q1 -16 -13 -28 q1 2 2 5 q5 10 5 16 q0 9 -14 18 q-4 2 -5 3 Z" /><glyph glyph-name="" unicode="&#x4e00;" d="M26 117 q68 22 212 22 l5 -11 q-146 -8 -202 -35 q-19 -9 -24 3 q-6 13 9 21 Z" /><glyph glyph-name="" unicode="&#x4e07;" d="M25 152 q60 25 210 24 l5 -10 q-68 -4 -116 -11 q-6 -26 -12 -50 q20 7 46 7 q47 -1 48 -39 q0 -32 -26 -89 q-15 0 -32 -4 q31 65 30 88 q0 28 -22 27 q-20 -1 -53 -19 q-14 -51 -32 -91 q-2 0 -6 -1 q-17 -1 -26 -3 q33 83 53 167 q-26 -6 -50 -16 q-14 -6 -22 1 q-8 8 5 19 Z" /><glyph glyph-name="" unicode="&#x4e2d;" d="M129 202 q18 0 18 -21 q0 -7 0 -13 q17 0 30 0 q38 -4 47 -38 q3 -15 -4 -44 q2 0 3 0 l3 -8 q-39 -4 -79 -12 q0 -13 0 -39 q1 -28 1 -42 q-15 -2 -31 -5 q0 10 0 34 q-1 30 -1 45 q-48 -12 -77 -24 q-9 101 -10 110 q0 17 11 22 q17 3 19 -13 q0 -1 0 -4 q29 9 56 14 l0 20 q-1 19 14 18 ZM67 67 q6 1 21 3 q18 2 28 4 q-1 27 -1 74 q-27 -6 -54 -20 q3 -24 6 -61 ZM147 78 l39 5 q8 28 5 47 q-2 23 -29 23 q-7 2 -15 0 q0 -36 0 -75 Z" /><glyph glyph-name="" unicode="&#x4e3a;" d="M162 178 q-2 -5 -5 -14 q-9 -22 -14 -33 l4 0 q76 1 75 -62 q0 -29 -16 -83 q-13 0 -33 -5 q19 58 20 90 q0 42 -38 41 q-10 0 -20 -1 q-6 -13 -12 -25 q10 8 19 -3 q20 -22 32 -39 q-18 0 -32 -4 q-4 4 -11 13 q-5 6 -8 9 q0 1 -1 2 q-4 6 -5 10 q-25 -50 -54 -94 q-13 4 -32 4 q44 61 72 122 q-30 -6 -63 -21 q-18 -9 -23 2 q-6 12 9 22 q20 10 86 19 q12 27 20 55 q6 18 19 16 q16 -3 11 -21 ZM72 185 q10 -9 33 -42 q-16 -1 -32 -6 q-9 13 -23 28 q-9 13 0 21 q11 8 22 -1 Z" /><glyph glyph-name="" unicode="&#x4e3b;" d="M45 153 q23 7 68 13 q-3 3 -7 8 q-4 4 -6 6 q-7 8 1 16 q12 10 20 3 q5 -6 20 -24 q4 -4 6 -6 q33 2 71 1 l3 -8 q-46 -2 -82 -8 q8 -3 7 -14 q0 -4 0 -13 q-1 -12 -1 -18 q22 2 55 3 l5 -11 q-34 -1 -60 -6 q-1 -24 -1 -67 q40 4 90 2 l4 -10 q-114 -1 -191 -39 q-15 -7 -22 3 q-6 14 11 22 q26 12 77 19 q0 4 1 13 q1 35 1 51 q-21 -6 -43 -16 q-19 -7 -23 5 q1 11 11 16 q21 8 55 12 q0 17 0 36 q0 4 3 8 q-37 -9 -64 -21 q-19 -9 -23 6 q0 14 14 18 Z" /><glyph glyph-name="" unicode="&#x4e5f;" d="M24 115 q14 8 29 12 q1 14 1 26 q1 19 15 19 q15 1 14 -20 q-1 -7 -1 -16 q9 4 28 8 q2 0 3 0 q-1 20 -1 40 q0 15 13 15 q15 0 15 -14 q0 -16 0 -36 q16 2 31 3 q41 1 41 -33 q0 -30 -15 -57 q-19 0 -33 -2 q17 24 18 59 q2 22 -16 20 q-11 -1 -26 -4 q0 -35 0 -71 q-16 0 -28 -3 q1 16 1 67 q-4 -2 -12 -5 q-13 -4 -20 -7 q0 -26 1 -52 q0 -63 51 -59 q33 -1 110 31 l4 -9 q-71 -37 -130 -40 q-61 -3 -63 73 q-1 18 -1 42 q-3 -2 -10 -6 q-6 -4 -10 -6 q-16 -9 -23 3 q-7 13 14 22 Z" /><glyph glyph-name="" unicode="&#x4e86;" d="M42 173 q33 9 81 12 q47 2 69 -3 q26 -11 19 -33 q-13 -20 -62 -53 q10 -29 7 -79 q-2 -23 -12 -36 q-24 0 -37 -3 q13 16 15 39 q6 44 -4 75 q-5 11 5 18 q3 2 8 6 q33 26 42 36 q6 6 4 13 q-2 5 -11 6 q-47 5 -114 -22 q-20 -7 -25 2 q-4 14 15 22 Z" /><glyph glyph-name="" unicode="&#x4e8e;" d="M172 161 q2 -15 3 -35 q6 0 18 1 q30 2 48 2 l2 -10 q-37 -2 -68 -7 q1 -74 -18 -132 q-5 -1 -16 -3 q-13 -3 -19 -5 q20 65 21 135 q-56 -10 -102 -30 q-21 -9 -25 3 q-3 13 20 21 q55 16 107 21 q-1 19 -3 34 q-4 13 2 16 q-42 -5 -82 -20 q-17 -5 -19 4 q-3 13 12 18 q45 15 165 15 l3 -10 q-19 -2 -48 -3 q-7 -1 -10 -1 q6 -4 9 -13 q0 -1 0 -1 Z" /><glyph glyph-name="" unicode="&#x4ea7;" d="M40 171 q26 6 76 8 q-1 4 -3 10 q-4 14 10 18 q15 5 20 -11 q1 -6 4 -16 q49 0 74 -4 l5 -11 q-8 0 -23 -1 q-12 0 -18 0 q8 -6 3 -17 q-4 -13 -12 -24 q36 0 65 -4 l5 -11 q-111 5 -178 -24 q-12 -58 -14 -105 q-21 0 -30 -1 q3 49 16 121 q4 25 18 21 q7 -1 10 -6 q2 0 8 1 q5 0 7 1 q-4 13 -5 25 q0 7 3 10 q-16 -4 -32 -10 q-23 -10 -27 7 q0 17 18 23 ZM164 163 q-45 -3 -66 -8 q9 -4 10 -12 q1 -16 5 -24 q7 1 21 2 q7 1 11 1 q1 2 2 5 q7 20 13 31 q1 3 4 5 Z" /><glyph glyph-name="" unicode="&#x4eca;" d="M106 197 q9 14 24 5 q8 -6 4 -17 q44 -33 119 -77 q-16 -2 -37 -11 q-29 14 -97 64 q-26 -35 -75 -86 q-20 6 -37 4 q58 50 99 118 ZM68 55 q54 21 97 14 q42 -10 34 -38 q-12 -33 -27 -53 q-14 3 -38 -1 q21 27 33 57 q3 19 -27 18 q-26 -4 -59 -22 q-22 -9 -27 6 q-2 12 14 19 ZM105 121 q11 9 22 -1 q19 -17 33 -36 q-25 -1 -32 -7 q-13 15 -25 28 q-7 10 2 16 Z" /><glyph glyph-name="" unicode="&#x4f4d;" d="M85 115 q0 -51 0 -133 q-14 -2 -29 -6 q0 66 0 125 q-4 -9 -12 -25 q-3 -6 -4 -8 q-16 0 -32 -3 q35 69 52 120 q6 15 20 11 q13 -3 7 -19 q-1 -2 -2 -6 q-5 -15 -15 -37 q14 1 15 -19 ZM95 8 q27 7 60 11 q20 45 32 83 q4 17 17 12 q13 -4 9 -21 q-6 -21 -27 -71 q38 2 59 2 l4 -9 q-93 -6 -142 -26 q-15 -6 -19 2 q-6 11 7 17 ZM102 132 q20 8 47 12 q-1 3 -4 8 q-2 4 -9 18 q-7 12 3 19 q13 7 22 -5 q2 -5 7 -15 q8 -14 11 -22 q22 2 46 2 l4 -9 q-73 -8 -116 -27 q-14 -6 -18 1 q-5 11 7 18 ZM141 87 q3 -12 7 -39 q2 -12 3 -17 q-14 0 -28 -1 q-4 22 -9 52 q-2 14 10 16 q15 3 17 -11 Z" /><glyph glyph-name="" unicode="&#x4f53;" d="M174 186 q0 -17 0 -37 q31 3 61 3 l4 -8 q-36 -4 -65 -10 l0 -16 q1 0 2 -1 q1 -1 1 -1 q38 -47 76 -88 q-15 0 -31 -6 q-16 17 -48 56 l0 -44 q16 0 35 0 l6 -8 q-23 -3 -41 -7 l0 -37 q-3 0 -9 -1 q-12 -1 -18 -2 l0 33 q-3 -1 -10 -4 q-6 -2 -10 -4 q-15 -4 -18 6 q-1 2 -1 3 q0 0 0 -1 q-1 -1 -1 -2 q-9 4 -30 2 q35 50 69 115 q-21 -6 -40 -13 q-16 -6 -22 6 q-2 11 13 15 q17 6 49 11 q0 8 -1 22 q0 12 0 18 q0 17 15 15 q15 0 14 -15 ZM83 195 q11 -4 6 -19 q-7 -18 -18 -41 q10 0 9 -14 q0 -37 -5 -136 q-14 -2 -27 -6 q1 36 2 91 q1 19 1 28 q-1 -2 -3 -6 q-3 -5 -10 -16 q-10 1 -35 -3 q36 59 58 112 q8 15 22 10 ZM122 25 q12 3 25 6 q0 22 0 43 q-8 -11 -22 -34 q-8 -13 -11 -18 q3 2 8 3 Z" /><glyph glyph-name="" unicode="&#x5149;" d="M121 62 q-17 -30 -45 -76 q-18 1 -35 -2 q8 13 22 39 q16 28 24 41 q2 3 5 7 q1 3 2 4 q-32 -9 -49 -18 q-29 -15 -36 -2 q-5 18 27 29 q35 9 68 15 q0 49 2 85 q-1 23 15 20 q18 1 17 -21 q-3 -33 -3 -80 q2 0 3 0 q63 6 103 4 l5 -8 q-49 -4 -83 -10 q0 -3 -2 -8 q-6 -27 -5 -58 q3 -27 29 -20 q23 7 52 27 l4 -7 q-27 -30 -65 -41 q-39 -7 -49 24 q-5 12 4 72 q0 3 1 5 l-9 -1 q6 -6 -2 -20 ZM208 161 q-13 -26 -22 -47 q-17 1 -33 -4 q10 25 26 60 q9 20 23 14 q12 -7 6 -23 ZM36 154 q-7 14 4 22 q12 5 24 -11 q17 -28 27 -54 q-17 -1 -30 -7 q-7 22 -25 50 Z" /><glyph glyph-name="" unicode="&#x5176;" d="M77 184 q0 17 15 18 q15 -1 15 -18 q-1 -3 -1 -8 q27 3 54 4 q0 8 0 12 q2 14 14 14 q15 -1 15 -17 q0 -4 -1 -8 q23 0 36 -1 l4 -8 q-17 1 -40 -2 q-1 -25 -3 -73 q-1 -23 -1 -33 q35 2 60 0 l4 -10 q-131 -4 -215 -39 q-14 -6 -22 3 q-5 13 9 18 q22 10 57 16 q-1 13 0 63 q0 25 0 36 q-21 -5 -31 -11 q-13 -5 -20 4 q-2 7 4 14 q11 8 47 15 l0 11 ZM155 37 q9 7 21 -1 q12 -10 45 -45 q4 -4 6 -6 q-19 0 -33 -9 q-28 30 -39 41 q-8 9 0 20 ZM87 23 q10 13 22 4 q10 -8 0 -21 q-15 -17 -28 -29 q-17 6 -34 3 q4 4 11 12 q20 20 29 31 ZM158 139 q1 15 1 28 q-29 -3 -54 -9 q0 -11 0 -23 q29 5 53 4 ZM154 62 q0 4 0 12 q1 11 1 16 q-27 -5 -50 -13 q0 -13 0 -21 q10 2 32 4 q11 1 17 2 ZM156 101 q1 5 1 14 q1 9 1 13 q-23 -1 -53 -12 l0 -18 q25 4 51 3 Z" /><glyph glyph-name="" unicode="&#x5212;" d="M134 102 q-2 -3 -6 -9 q-9 -15 -16 -24 q16 -40 41 -76 q-22 0 -31 -4 q-18 24 -30 53 q-23 -29 -39 -47 q-13 3 -30 5 q33 40 57 72 q-6 16 -15 46 q-1 5 -2 7 q-3 -1 -8 -4 q-10 -4 -16 -8 q-19 -9 -25 -2 q-11 14 10 26 q14 6 34 9 q-4 15 -7 33 q-3 17 10 20 q13 3 19 -15 q3 -16 8 -33 q9 0 18 1 q-2 10 -8 20 q-6 14 7 19 q12 5 20 -9 q8 -13 11 -30 l8 0 l4 -9 q-33 -4 -56 -10 q1 -7 6 -22 q2 -6 3 -9 q3 6 6 11 q8 14 21 8 q11 -5 6 -19 ZM231 186 q4 -35 3 -96 q-1 -57 -6 -105 q-20 0 -29 -3 q13 86 5 195 q-2 26 10 26 q15 0 17 -17 ZM186 154 q2 -32 0 -105 q-14 3 -27 0 q0 53 -2 102 q0 20 13 21 q15 -2 16 -18 Z" /><glyph glyph-name="" unicode="&#x5237;" d="M43 182 q10 -1 13 -7 q24 8 47 9 q28 -2 33 -21 q0 -9 -7 -26 q4 1 12 1 l5 -9 q-71 -13 -94 -25 q-2 -17 -5 -52 q-4 -41 -6 -55 q-16 0 -30 -5 q5 37 14 144 q1 16 2 23 q1 25 16 23 ZM67 93 q10 0 13 -5 q6 3 12 5 l0 5 q-1 18 12 16 q17 0 16 -17 q3 0 6 0 q33 -2 32 -27 q-2 -20 -11 -47 q-9 0 -28 -6 q0 -18 1 -29 q-6 -1 -20 -4 q-5 -1 -8 -2 q2 49 0 94 q-4 -3 -10 -7 q0 -10 -1 -27 q0 -18 -1 -27 q-15 -1 -26 -7 q-1 19 1 69 q1 17 12 16 ZM236 176 q3 -86 3 -124 q0 -42 -2 -70 q-20 0 -31 -4 q3 50 -1 199 q-2 17 14 18 q16 2 17 -19 ZM191 137 q2 -56 -1 -101 q-16 -1 -30 -7 q4 69 0 110 q-1 19 15 19 q16 2 16 -21 ZM56 147 q0 -2 0 -8 q-1 -6 -1 -9 q8 1 27 3 q12 1 18 2 q5 9 7 21 q2 16 -10 15 q-11 0 -40 -15 q0 -5 -1 -9 ZM122 86 l-2 0 q0 -10 0 -34 q-1 -24 -1 -35 q12 36 12 52 q3 20 -9 17 Z" /><glyph glyph-name="" unicode="&#x534e;" d="M214 162 q-14 -10 -52 -36 q0 -2 0 -5 q2 -32 22 -33 q15 -1 43 22 l9 -6 q-33 -36 -69 -36 q-27 0 -33 38 q-4 -3 -9 -6 q-13 9 -30 14 q18 12 37 24 q-1 18 1 49 q2 18 15 17 q15 -1 14 -18 q0 -5 -1 -15 q0 -10 0 -14 q18 12 36 23 q12 7 21 -1 q6 -10 -4 -17 ZM148 63 q0 -6 0 -12 q46 1 90 -2 l5 -10 q-64 0 -94 -3 q2 -40 2 -65 q-15 3 -31 1 q-2 38 -2 60 q-48 -8 -77 -21 q-16 -8 -23 3 q-6 11 7 20 q18 11 93 16 l0 10 q1 18 13 18 q14 -2 17 -15 ZM93 145 q2 -54 0 -85 q-16 1 -29 -2 q-1 18 -1 57 q0 -1 -2 -4 q-1 -2 -2 -4 q-17 3 -34 0 q29 47 55 85 q9 15 23 11 q13 -4 7 -19 q-10 -13 -21 -31 q4 -2 4 -8 Z" /><glyph glyph-name="" unicode="&#x5370;" d="M154 192 q14 -2 16 -15 q16 8 32 8 q36 0 36 -39 q-3 -66 -29 -128 q-15 1 -31 -2 q31 68 32 129 q0 25 -15 24 q-9 -1 -26 -17 q-1 -68 0 -173 q-16 -2 -29 -8 q-2 38 -2 94 q-1 60 0 110 q1 18 16 17 ZM46 188 q7 0 12 -6 q23 6 63 3 l5 -10 q-40 -1 -65 -19 q0 -2 0 -5 q-2 -28 -1 -41 q25 7 58 9 l4 -9 q-35 -5 -62 -25 q2 -14 3 -32 q1 -33 18 -31 q21 3 39 17 l6 -7 q-30 -31 -61 -33 q-27 -3 -32 39 q-3 25 -4 65 q0 39 2 67 q3 18 15 18 Z" /><glyph glyph-name="" unicode="&#x5373;" d="M48 190 q9 0 13 -7 q17 6 40 6 q30 -3 32 -28 q1 -26 -9 -51 q6 0 12 0 l2 -8 q-47 -8 -82 -23 q0 -29 1 -53 q2 -12 12 -10 q12 3 22 15 q-11 16 -20 28 q-7 13 5 20 q13 3 21 -6 q16 -19 38 -54 q-9 -1 -27 -7 q-2 -1 -3 -1 l-5 8 q-19 -20 -38 -27 q-29 -8 -34 16 q-8 70 3 166 q2 17 17 16 ZM155 176 q8 0 12 -4 q19 9 37 8 q36 -4 37 -39 q0 -45 -34 -122 q-17 2 -35 0 q36 70 39 124 q1 19 -10 20 q-12 0 -28 -12 q0 -27 0 -87 q-1 -60 -1 -88 q-16 1 -30 -3 q-2 92 1 185 q0 19 12 18 ZM97 172 q-16 1 -36 -10 q0 -3 -1 -9 q0 -7 -1 -10 q32 2 45 1 q1 6 1 15 q0 12 -8 13 ZM95 108 q5 11 7 25 q-26 -4 -44 -10 q0 -3 0 -10 q-1 -6 -1 -10 q18 3 38 5 Z" /><glyph glyph-name="" unicode="&#x55b7;" d="M104 153 q-1 10 16 14 q7 1 20 4 q10 2 15 3 q0 2 1 6 q0 4 0 6 q0 22 11 22 q15 2 15 -17 q0 -7 0 -14 q23 1 45 1 l3 -9 q-5 -1 -14 -1 q-24 -3 -35 -5 q0 -10 -1 -27 q5 0 8 1 q1 0 1 1 q2 19 15 18 q14 0 12 -16 q0 0 0 -2 q17 2 27 0 l3 -8 q-5 0 -16 -1 q-10 -1 -16 -2 q-1 -11 -4 -26 q24 -4 25 -28 q2 -26 -6 -51 q-12 3 -29 -3 q7 21 7 51 q2 26 -23 21 q-30 -4 -49 -23 q1 -8 -1 -31 q0 -5 0 -8 q-16 2 -28 -5 q3 18 1 50 q0 13 12 15 q1 1 4 0 q1 0 1 0 q2 0 2 1 q0 8 -2 16 q-2 0 -6 -2 q-4 -1 -6 -2 q-14 -5 -16 6 q-4 11 19 17 q1 0 3 1 q2 0 3 0 q0 1 0 2 q-4 17 8 18 q10 2 16 -14 q0 -1 0 -1 q2 1 6 1 q3 1 5 1 q0 5 -1 14 q0 7 0 10 q-4 -1 -11 -3 q-12 -4 -18 -6 q-19 -8 -22 5 ZM35 178 q12 0 15 -9 q10 4 17 4 q30 1 28 -28 q0 -1 0 -5 q1 -48 -4 -90 q3 0 5 1 l3 -9 q-21 -6 -49 -20 q0 -5 0 -8 q-6 0 -18 -4 q-5 -2 -8 -3 q0 3 0 10 q-3 100 -1 144 q0 17 12 17 ZM178 73 q12 -6 4 -22 q-1 -2 -3 -5 q-2 -4 -3 -6 q5 -5 15 -14 q30 -28 49 -44 q-19 4 -35 -3 q-6 5 -24 21 q-13 11 -19 17 q-12 -21 -26 -40 q-14 2 -35 -2 q1 1 -2 0 q36 41 59 90 q7 15 20 8 ZM49 147 q-1 -48 0 -104 q3 1 9 2 q5 1 8 1 q4 46 4 91 q2 27 -10 20 q-1 0 -4 -4 q-4 -4 -7 -6 ZM187 123 q-16 -2 -39 -9 q0 -2 0 -7 q1 -7 1 -11 q20 5 36 6 q0 11 2 21 Z" /><glyph glyph-name="" unicode="&#x5728;" d="M155 142 q19 -2 18 -20 q0 -3 0 -9 q-1 -8 -1 -13 q23 3 51 6 l3 -9 q-10 -2 -27 -5 q-19 -3 -27 -5 q-1 -24 -1 -73 q11 1 36 3 q18 1 27 2 l4 -10 q-115 -8 -177 -38 q2 45 2 91 q-6 -11 -12 -20 q-17 -2 -35 -8 q36 64 56 108 q-8 -3 -22 -9 q-2 -1 -3 -1 q-21 -9 -25 2 q-2 13 19 21 q16 5 41 9 q6 15 9 24 q6 17 21 14 q15 -3 9 -19 q-2 -6 -5 -14 q43 5 106 9 l3 -9 q-63 -5 -116 -16 q-6 -15 -16 -34 q6 -4 5 -12 q0 -13 -1 -19 q2 0 6 1 q10 3 38 6 l0 28 q-1 20 14 19 ZM93 2 q18 5 47 8 q0 8 0 29 q1 27 1 41 q-32 -9 -45 -18 q0 -5 -1 -14 q-1 -33 -2 -46 Z" /><glyph glyph-name="" unicode="&#x5733;" d="M81 178 q0 -11 0 -26 q4 0 12 0 q8 1 13 1 l2 -8 q-10 -1 -27 -7 q0 -14 -1 -46 q-1 -32 -2 -47 q4 2 12 5 q8 3 22 8 l4 -6 q2 20 4 60 q1 24 2 35 q-1 26 14 23 q12 -1 11 -17 q0 -5 0 -8 q-1 -11 -2 -40 q-4 -76 -5 -99 q-13 -1 -27 -6 q2 24 3 51 q-40 -20 -83 -55 q-17 -13 -23 -2 q-8 10 11 24 q4 4 21 12 q6 2 9 4 q1 32 1 95 q-10 -6 -22 -10 q-16 -7 -21 3 q-2 13 14 19 q14 4 29 7 q0 18 0 30 q-1 17 14 17 q14 0 15 -17 ZM239 165 q-1 -63 -1 -106 q0 -39 0 -77 q-13 -1 -27 -7 q-1 33 -1 71 q0 19 0 45 q0 21 0 74 q0 26 15 24 q16 2 14 -24 ZM190 141 q0 -86 -1 -121 q-10 -1 -24 -6 q1 29 1 70 q1 38 0 57 q-1 25 13 23 q13 4 11 -23 Z" /><glyph glyph-name="" unicode="&#x578b;" d="M25 119 q7 6 30 13 q1 14 1 25 q0 1 1 4 q0 2 0 3 q-7 -3 -12 -6 q-11 -6 -15 1 q-5 12 14 20 q25 9 85 9 l4 -9 q-32 -3 -59 -11 q8 -1 6 -13 q0 -11 -1 -18 q4 0 13 2 q11 1 16 2 q0 16 0 20 q0 12 12 11 q12 1 12 -13 q0 -6 0 -16 q5 1 10 1 l5 -9 q-7 0 -15 -1 q0 -39 0 -55 l2 0 q16 0 16 -14 q0 -3 0 -7 q22 2 50 3 l4 -9 q-27 -1 -55 -6 q0 -17 -1 -35 q60 4 89 3 l6 -11 q-142 -5 -195 -31 q-11 -7 -19 0 q-9 9 4 19 q17 10 84 17 q1 5 1 16 q1 10 1 15 q-14 -4 -41 -13 q-6 -2 -9 -3 q-15 -6 -20 0 q-5 11 6 18 q18 9 64 14 q1 7 1 10 q0 2 0 3 q-1 0 -2 -1 q-5 -1 -11 -1 q1 38 1 64 q-16 -3 -30 -8 q0 -8 0 -5 q-2 -39 -4 -51 q-2 0 -11 0 q-10 -1 -13 -1 q0 7 3 41 q0 -3 1 6 q-4 -1 -8 -5 q-2 -1 -3 -2 q-13 -8 -21 -3 q-7 8 3 17 ZM210 193 q15 2 15 -15 q0 -71 -2 -104 q-6 -1 -21 -5 q-3 -1 -5 -1 q3 51 3 111 q-1 14 10 14 ZM167 170 q13 1 13 -14 q1 -7 0 -27 q0 -22 -1 -34 q-13 0 -25 -2 q0 22 0 61 q1 15 13 16 Z" /><glyph glyph-name="" unicode="&#x57fa;" d="M28 66 q19 5 57 12 q-2 42 -2 72 q-9 -2 -23 -7 q-7 -2 -10 -3 q-21 -8 -23 4 q-1 16 17 21 q14 3 38 6 q0 8 0 15 q1 17 14 18 q16 1 17 -17 q0 -6 0 -13 q21 1 44 1 q0 5 0 10 q1 18 14 17 q18 0 17 -17 q0 -4 0 -9 q21 0 38 -2 l3 -10 q-21 0 -41 -1 q0 -10 -1 -33 q-1 -33 -2 -46 q28 2 52 0 l3 -10 q-25 0 -63 -2 q8 -6 34 -28 q24 -19 35 -28 q-24 0 -34 -4 q-2 1 -5 4 q-3 2 -11 9 q-24 -1 -43 -4 l0 -15 q31 1 61 -1 l3 -10 q-87 -4 -122 -22 q-13 -6 -17 5 q-2 12 11 18 q15 5 35 7 q0 7 0 13 q-13 -3 -24 -8 q-14 -7 -19 4 q0 4 1 7 q-14 -14 -25 -23 q-18 3 -37 2 q38 38 63 60 q-30 -8 -48 -19 q-18 -8 -22 4 q-3 13 15 23 ZM153 41 l0 -6 q17 0 30 0 q-6 4 -17 13 q-14 10 -20 15 q-3 3 -3 6 q-15 -1 -28 -4 q5 -6 0 -13 q-9 -9 -24 -24 q0 0 2 1 q13 3 31 5 q0 4 0 7 q-1 16 11 17 q16 -2 18 -17 ZM155 116 q0 10 0 19 q-24 -1 -41 -9 q0 -6 0 -12 q13 2 41 2 ZM115 81 q20 2 39 2 q0 11 0 21 q-21 -4 -39 -11 q0 -6 0 -12 ZM156 161 q-23 -2 -43 -5 q1 -5 1 -11 q13 2 42 2 q0 7 0 14 Z" /><glyph glyph-name="" unicode="&#x58a8;" d="M50 124 q26 7 60 10 l0 9 q-51 -8 -69 -15 q-3 27 -3 57 q2 14 15 16 q12 0 14 -8 q47 14 91 14 q60 0 60 -31 q0 -9 -2 -15 q2 -1 4 -1 l5 -8 q-24 -1 -67 -4 q-12 -2 -18 -2 l0 -10 q30 1 68 1 l5 -8 q-42 -1 -73 -4 l0 -12 q43 4 102 4 l5 -8 q-66 -3 -140 -15 q4 -1 7 -4 q10 -9 20 -24 q13 0 14 -13 q0 -4 0 -10 q34 2 61 0 l6 -10 q-37 -1 -66 -4 l0 -20 q45 2 88 0 l6 -11 q-138 -2 -202 -28 q-18 -6 -22 3 q-6 10 5 17 q32 12 94 17 l0 17 q-33 -5 -57 -14 q-18 -8 -23 1 q-7 9 5 16 q17 9 75 14 q0 5 0 8 q0 11 6 15 q-12 -1 -19 -3 q-6 10 -13 19 q-5 7 0 11 q-9 -1 -18 -3 q13 -4 4 -16 q-12 -11 -24 -26 q-17 3 -35 0 q5 7 16 19 q7 9 11 13 q1 1 2 2 q1 1 3 3 q-4 -1 -12 -3 q-9 -3 -12 -4 q-14 -5 -17 3 q-3 10 9 15 q28 11 91 17 l0 10 q-30 -4 -52 -12 q-14 -6 -17 2 q-3 9 9 13 ZM206 95 q18 -12 39 -40 q-21 0 -31 -2 q-14 18 -25 27 q-7 8 1 14 q8 6 16 1 ZM162 91 q8 -8 20 -28 q-18 2 -30 -2 q-1 2 -5 7 q-5 8 -8 12 q-6 11 5 15 q9 3 18 -4 ZM176 169 q0 -1 -1 -3 q-1 -3 -2 -4 l14 0 q2 8 2 14 q-1 18 -36 18 q-8 0 -17 0 q6 -8 5 -17 q-1 -8 -1 -16 q2 0 3 0 q8 16 11 21 q4 10 16 4 q9 -5 6 -17 ZM98 178 q3 -8 5 -20 q2 0 4 1 q2 0 3 0 q1 10 1 30 q-10 -1 -22 -6 q6 0 9 -5 ZM69 155 q2 0 5 1 q4 0 5 0 q0 8 -2 14 q-2 6 1 10 q-2 -2 -8 -3 q-1 -1 -2 -1 q0 -13 1 -21 Z" /><glyph glyph-name="" unicode="&#x5927;" d="M151 115 q23 -59 75 -123 q-30 0 -39 -4 q-29 38 -64 107 q-26 -72 -48 -109 q-15 6 -36 0 q35 59 60 134 q-15 -3 -43 -11 q-7 -2 -10 -3 q-22 -7 -27 6 q-4 15 17 20 q26 8 71 11 q3 10 8 31 q1 5 2 7 q6 21 21 15 q14 -3 10 -21 q0 -1 -1 -3 q-1 -10 -7 -27 q56 3 101 -3 l5 -13 q-65 3 -106 -3 q6 -2 11 -11 Z" /><glyph glyph-name="" unicode="&#x5b9a;" d="M78 116 q42 14 109 13 q4 0 9 0 q2 6 0 14 q-5 12 -27 13 q-59 -1 -106 -24 q-1 -7 -3 -24 q-1 -7 -1 -10 q-5 1 -19 0 q-7 0 -10 0 q0 34 8 62 q5 13 17 10 q8 -2 11 -7 q19 4 43 7 q-1 12 -3 20 q-3 12 9 15 q15 3 22 -12 q3 -9 4 -21 q10 1 19 1 q32 1 48 -7 q12 -6 18 -20 q1 -5 1 -18 l8 0 l2 -12 q-51 -2 -91 -8 q1 -2 1 -5 q0 -10 0 -21 q32 3 79 3 l2 -9 q-37 -7 -82 -23 q0 -4 0 -13 q-1 -10 -1 -15 q11 -4 34 -11 q46 -15 65 -22 q-15 -5 -34 -16 q-94 33 -135 43 q-3 -6 -10 -19 q-6 -10 -8 -15 q-18 2 -31 -2 q19 43 47 92 q4 11 20 3 q12 -4 4 -19 q-3 -6 -9 -17 q7 -2 27 -8 q1 18 1 48 q0 12 0 20 q-20 -5 -33 -11 q-20 -7 -21 9 q-1 11 16 16 Z" /><glyph glyph-name="" unicode="&#x5bf8;" d="M200 180 q0 -3 0 -11 q1 -9 1 -13 q5 0 15 -1 q20 -1 29 -2 l5 -12 q-24 0 -48 0 q1 -18 1 -41 q-1 -62 -13 -124 q-13 3 -33 1 q12 39 16 107 q0 34 -1 54 q-67 -6 -126 -25 q-21 -7 -26 6 q-4 13 16 21 q47 13 135 15 q0 15 -2 26 q-1 14 11 17 q17 -3 20 -18 ZM123 104 q13 -38 17 -57 q-19 2 -29 -5 q-2 6 -6 20 q-8 30 -11 38 q-5 14 6 18 q16 1 23 -14 Z" /><glyph glyph-name="" unicode="&#x5c06;" d="M17 62 q14 12 41 23 q2 21 3 40 q-2 -1 -6 -3 q-4 -3 -6 -4 q-8 14 -23 32 q-7 13 4 22 q10 6 20 -5 q6 -7 13 -16 q0 1 0 3 q2 13 2 28 q1 17 15 17 q17 -2 17 -20 q-1 -10 -3 -32 q-1 -17 -2 -26 q32 42 62 72 q13 11 25 2 q6 -4 5 -12 q23 0 35 -11 q12 -11 -1 -28 q-24 -30 -58 -58 q-7 2 -31 2 q-5 0 -8 0 q17 14 34 31 q-10 7 -15 10 q-1 0 -1 1 q-2 0 -2 1 q-3 -3 -8 -10 q-3 -3 -4 -5 q-15 6 -33 1 q-1 -27 -3 -58 q3 6 12 9 q35 9 78 11 q0 1 0 4 q-1 2 -1 3 q-6 12 7 17 q15 5 22 -10 q3 -5 4 -13 q18 0 35 -1 l2 -10 q-18 0 -34 0 q5 -47 0 -88 q-16 1 -34 -3 q8 42 2 88 q-15 -1 -30 -6 q0 0 1 -1 q0 -1 0 -2 q7 -20 13 -43 q-16 0 -30 -4 q-4 15 -12 38 q0 2 0 4 q-3 -1 -9 -3 q-6 -3 -9 -4 q-14 -7 -17 2 q-1 -31 -1 -66 q-8 0 -26 -3 q-4 -1 -6 -1 q-1 35 2 91 q-17 -12 -26 -25 q-12 -13 -20 -4 q-6 11 5 23 ZM164 159 q-6 -6 -12 -12 q8 -3 20 -11 q12 13 17 19 q5 7 0 10 q-8 3 -25 -6 Z" /><glyph glyph-name="" unicode="&#x5c3a;" d="M220 147 q1 -5 -6 -23 q2 0 6 -1 q3 0 4 0 l5 -11 q-34 -2 -64 -5 q30 -62 65 -123 q-21 1 -36 -2 q-35 63 -60 120 q-45 -8 -70 -22 q-7 -53 -8 -93 q-17 2 -31 -3 q6 99 21 188 q5 22 19 18 q9 -2 11 -10 q49 11 89 8 q50 -3 55 -41 ZM161 168 q-49 -1 -88 -21 q-1 -15 -4 -30 q63 10 113 9 q8 17 7 26 q-1 17 -28 16 Z" /><glyph glyph-name="" unicode="&#x5dde;" d="M208 199 q15 0 15 -17 q2 -35 9 -172 q1 -19 1 -25 q-19 -3 -29 -6 q-1 23 -4 79 q-1 28 -2 41 l-28 -6 q-12 17 -15 22 q-4 9 2 17 q14 10 24 -2 q3 -5 11 -17 q5 -6 6 -8 q0 8 -1 24 q-3 45 -3 53 q-1 16 14 17 ZM75 190 q15 1 14 -14 q-2 -53 -25 -188 l-30 -6 q1 6 3 19 q12 70 15 99 l-11 -1 q-14 17 -26 33 q-6 8 3 17 q11 8 20 -2 q9 -8 18 -22 q2 18 4 44 q1 6 1 8 q1 13 14 13 ZM135 186 q15 -1 15 -17 q0 -114 1 -167 q-3 -1 -10 -2 q-13 -3 -18 -5 l0 108 q-4 -1 -12 -3 q-3 -1 -4 -1 q-11 12 -18 23 q-4 9 3 15 q10 8 19 0 q2 -2 6 -8 q4 -6 6 -9 q0 34 0 50 q0 15 12 16 Z" /><glyph glyph-name="" unicode="&#x5de5;" d="M33 12 q29 15 80 23 q0 65 -3 121 q0 2 1 3 q-30 -7 -57 -20 q-21 -8 -26 4 q-2 15 17 22 q63 20 172 17 l3 -11 q-50 -1 -84 -7 q6 -3 6 -11 q1 -24 2 -50 q0 -12 0 -27 q0 -12 0 -37 q47 4 98 3 l5 -11 q-124 -1 -197 -43 q-18 -11 -26 0 q-10 12 9 24 Z" /><glyph glyph-name="" unicode="&#x5e74;" d="M19 52 q9 5 26 8 q3 26 3 45 q0 15 14 15 q5 1 8 -2 q17 5 48 8 q0 2 0 7 q1 6 1 9 q0 7 2 10 q-48 -10 -85 -25 q-3 -1 -5 1 q-2 2 -1 5 q3 6 8 17 q8 17 23 44 q8 16 22 10 q11 -5 7 -17 q-1 -3 -5 -10 q-5 -9 -7 -13 q59 12 141 12 l4 -10 q-42 -3 -80 -10 q6 -3 5 -13 q0 -7 0 -15 q23 2 63 2 l4 -9 q-33 0 -67 -6 q0 -19 0 -40 q47 4 95 3 l4 -10 q-41 -1 -99 -9 q0 -44 0 -83 q-17 0 -33 -3 q0 13 0 40 q1 27 1 41 q-50 -11 -83 -26 q-15 -7 -23 3 q-4 12 9 21 ZM76 98 q-1 -8 -3 -32 q3 1 10 2 q21 3 33 4 q0 6 1 19 q0 13 1 19 q-3 -1 -8 -2 q-24 -6 -34 -10 Z" /><glyph glyph-name="" unicode="&#x5e7f;" d="M135 195 q9 -12 16 -31 q41 2 89 0 l5 -11 q-121 -3 -176 -25 q-15 -84 -19 -149 q-19 1 -32 -3 q2 47 20 167 q4 29 22 23 q9 -3 11 -10 q11 1 32 4 q11 1 16 2 q-5 13 -11 22 q-6 11 6 16 q13 4 21 -5 Z" /><glyph glyph-name="" unicode="&#x6295;" d="M110 87 q26 10 69 9 q48 -6 33 -37 q-8 -12 -24 -27 q16 -11 53 -34 q9 -5 14 -8 q-4 -1 -12 -2 q-23 -3 -30 -7 q-14 10 -48 32 q-6 -5 -19 -14 q-16 -12 -23 -18 q-13 5 -46 0 q35 23 66 47 q-12 9 -22 16 q-8 6 -8 13 q-10 -4 -15 6 q-5 16 12 24 ZM21 66 q2 1 6 3 q6 4 21 10 q0 23 0 46 q-9 -3 -20 -9 q-18 -8 -20 5 q0 13 14 17 q12 6 26 8 q0 17 0 34 q-1 22 14 21 q16 0 16 -17 q0 -18 -1 -33 q1 0 3 0 q15 2 30 2 l3 -9 q-11 -2 -31 -7 q-3 -1 -5 -1 q0 -24 -1 -46 q9 3 25 8 q5 1 7 2 l6 -9 q-12 -4 -38 -18 q-1 -18 -2 -51 q-2 -23 -2 -33 q-13 0 -28 -6 q0 6 1 18 q2 34 2 55 q-3 -2 -9 -6 q-3 -3 -5 -4 q-14 -10 -20 -1 q-7 13 8 21 ZM142 189 q8 -1 11 -5 q20 9 37 6 q27 -3 22 -24 q-2 -10 -5 -31 q-2 -18 10 -14 q12 3 22 10 l5 -6 q-12 -12 -32 -18 q-39 -10 -34 27 q1 4 2 11 q1 10 3 17 q1 13 -13 11 q-9 -2 -17 -10 q-1 -8 -1 -5 q-7 -42 -11 -58 q-13 1 -29 -4 q3 22 12 69 q2 9 2 10 q2 15 16 14 ZM141 62 q2 -1 5 -4 q11 -7 18 -11 q14 12 20 21 q2 10 -9 13 q-22 -1 -43 -13 q3 -1 9 -6 Z" /><glyph glyph-name="" unicode="&#x65b9;" d="M133 190 q4 -11 8 -28 q50 4 91 1 l5 -11 q-57 0 -99 -9 q-2 0 -6 -1 q-5 0 -7 -1 q5 -4 0 -18 q0 -2 -2 -7 q-1 -4 -2 -7 q33 4 52 -2 q39 -11 36 -46 q-3 -40 -23 -80 q-20 3 -35 -1 q28 52 28 85 q0 29 -23 30 q-22 0 -45 -15 q-8 -26 -29 -83 q-3 -10 -5 -15 q-19 3 -33 -3 q20 57 52 155 q-35 -10 -54 -18 q-23 -11 -28 4 q-5 16 22 23 q32 9 72 15 q-3 12 -6 27 q-2 12 9 17 q16 3 22 -12 Z" /><glyph glyph-name="" unicode="&#x661f;" d="M68 37 q10 8 50 16 q0 11 0 20 q-27 -9 -51 -21 q-3 -8 -5 -13 q-18 -3 -29 -7 q5 18 19 56 q2 4 6 7 q0 0 -1 0 q-1 -1 -2 -1 q-1 13 -5 60 q-2 21 -2 25 q-2 17 13 17 q15 0 18 -10 q43 17 83 15 q44 -5 49 -34 q0 -19 -5 -36 q3 0 5 0 l7 -11 q-48 -3 -82 -8 q13 -2 12 -18 q25 5 52 9 l8 -9 q-31 -4 -60 -12 l0 -23 q27 5 57 8 l4 -8 q-30 -4 -61 -12 l0 -30 q27 3 82 5 q-3 0 5 0 l4 -10 q-143 -15 -200 -39 q-15 -6 -18 1 q-6 11 9 21 q21 11 88 19 l0 24 q-24 -9 -37 -16 q-8 -6 -15 -4 q-7 8 2 19 ZM81 165 q0 -6 1 -13 q63 12 99 13 l0 4 q1 21 -28 21 q-35 -1 -72 -25 ZM84 120 q35 5 92 9 q2 6 4 24 q0 1 0 2 q-63 -7 -97 -23 q0 -2 1 -6 q0 -4 0 -6 ZM68 97 q13 -3 9 -17 q-1 -1 -1 -2 q-1 -1 -1 -2 q19 6 43 11 q0 2 -1 6 q0 3 0 4 q0 9 3 12 q-22 -4 -57 -12 q3 0 5 0 Z" /><glyph glyph-name="" unicode="&#x6708;" d="M84 200 q11 -2 12 -14 q24 9 53 10 q33 -1 40 -41 q5 -45 -9 -174 q-18 -1 -30 -5 q6 56 7 89 q-56 -9 -81 -23 q-2 -8 -6 -25 q-6 -23 -9 -35 q-11 1 -30 -3 q21 86 36 206 q2 17 17 15 ZM86 101 q-3 -18 -6 -36 q41 5 78 7 q0 10 1 27 q0 14 0 21 q-57 -10 -73 -19 ZM156 159 q-5 26 -25 22 q-21 -5 -37 -20 q-1 -6 -2 -18 q-2 -14 -3 -21 q14 2 49 6 q15 1 20 2 q0 18 -2 29 Z" /><glyph glyph-name="" unicode="&#x6761;" d="M123 204 q7 -7 -2 -18 q-1 0 -1 -1 q-1 -1 -1 -1 q43 12 56 8 q21 -8 13 -24 q-5 -9 -45 -42 q55 -30 99 -47 q-25 -4 -46 -11 q-42 19 -76 40 q-7 -5 -24 -18 q-22 -17 -35 -27 q-28 2 -44 -1 q13 10 40 31 q27 21 39 30 q-10 8 -21 15 q-7 -7 -13 -13 q-13 2 -37 0 q30 27 72 77 q13 12 26 2 ZM28 47 q22 9 85 15 q0 4 -1 11 q0 6 0 8 q1 11 13 12 q15 0 17 -10 q1 -8 1 -19 q44 3 96 0 l3 -8 q-11 -1 -31 -2 q-27 -2 -40 -3 q11 -12 32 -38 q17 -22 24 -29 q-15 0 -31 -4 q-29 32 -46 54 q-5 6 2 15 q-4 -1 -9 -1 q1 -20 0 -58 q0 -12 0 -17 q-14 1 -31 0 q1 15 1 68 q-33 -43 -50 -62 q-16 0 -39 -5 q30 33 54 63 q-24 -6 -39 -12 q-17 -7 -23 2 q-2 12 12 20 ZM141 173 q-21 -6 -44 -19 q4 -2 11 -6 q7 -5 10 -7 q20 15 28 23 q4 3 2 7 q-2 3 -7 2 Z" /><glyph glyph-name="" unicode="&#x677f;" d="M93 178 q-2 -9 -2 -20 q13 0 25 0 l5 -10 q-16 -2 -31 -5 q-1 -4 -1 -13 q-1 -9 -1 -14 q6 0 10 -6 q2 -2 6 -9 q8 -12 13 -19 q10 41 16 61 q-10 1 -10 12 q-1 15 14 18 q71 10 103 5 l5 -10 q-50 -3 -83 -14 q3 -6 -1 -18 q0 -1 -2 -4 q-1 -4 -2 -6 q17 5 44 2 q23 -3 23 -28 q-3 -23 -19 -56 q11 -13 38 -45 q7 -7 10 -11 q-19 -1 -35 -6 q-15 18 -27 35 q-4 -7 -13 -22 q-3 -5 -5 -7 q-21 0 -37 -1 q22 29 37 55 q-5 7 -15 21 q-3 5 -5 7 q-6 12 1 19 q14 6 23 -7 q1 -1 3 -4 q4 -6 6 -8 q3 8 7 21 q1 2 1 3 q1 15 -12 16 q-18 -4 -34 -18 q-9 -38 -23 -101 q-13 4 -27 1 q5 32 16 80 q-12 -1 -21 -4 q-3 7 -7 13 q-2 -32 -4 -103 q-12 1 -31 -3 q2 52 3 94 q-11 -18 -20 -52 q-10 3 -31 1 q20 54 37 84 q6 11 17 12 q0 11 1 20 q-16 -6 -30 -12 q-15 -5 -19 5 q-5 12 9 19 q10 5 41 9 q2 13 2 22 q2 23 16 20 q17 -2 16 -19 Z" /><glyph glyph-name="" unicode="&#x6b63;" d="M159 151 q0 -6 1 -19 q0 -13 1 -19 q35 4 61 5 l4 -8 q-35 -6 -65 -18 q0 -33 0 -70 q36 3 76 4 l4 -8 q-117 -7 -195 -42 q-20 -9 -26 1 q-12 20 22 28 q1 0 2 0 q8 1 17 4 q-1 28 -1 91 q0 18 15 19 q15 0 16 -24 q0 -57 1 -81 q22 4 39 5 q0 67 -2 133 q-1 16 2 20 q-39 -7 -68 -21 q-21 -9 -25 3 q-8 15 16 21 q47 15 161 14 l5 -8 q-38 -1 -70 -6 q9 2 9 -24 Z" /><glyph glyph-name="" unicode="&#x6bcf;" d="M24 74 q10 3 22 6 q7 21 19 47 q6 17 21 11 q5 -1 6 -5 q39 14 75 12 q43 -5 47 -33 q0 -7 0 -18 q5 0 14 -1 q10 0 14 -1 l4 -8 q-18 -1 -34 -3 q-2 -29 -11 -59 q6 1 17 3 q5 1 8 1 l5 -8 q-5 -2 -23 -7 q-7 -2 -10 -3 q-2 -4 -4 -12 q-1 -5 -7 -19 q-19 1 -34 -3 q3 5 7 17 q3 7 4 10 q-56 -9 -90 -10 q-39 1 -38 40 q2 10 3 22 q-2 -2 -4 -2 q-22 -10 -26 2 q-1 16 15 21 ZM82 200 q12 -6 -1 -28 q85 12 146 10 l4 -9 q-131 -11 -203 -42 q-8 1 -5 12 q16 25 37 54 q9 10 22 3 ZM113 58 q10 7 21 -5 q9 -11 24 -38 l10 1 q10 34 13 63 q-71 -7 -107 -16 q-4 -17 -7 -35 q-1 -19 31 -19 q8 0 25 2 q-12 -2 3 0 q-6 13 -17 30 q-5 11 4 17 ZM122 118 q13 5 23 -9 q7 -9 10 -16 q13 1 28 1 q0 7 0 13 q-2 23 -23 23 q-41 -3 -73 -26 q-3 -9 -6 -18 q20 3 41 5 q-1 2 -2 6 q-2 4 -3 6 q-6 10 5 15 Z" /><glyph glyph-name="" unicode="&#x6be1;" d="M28 169 q25 11 99 19 l3 -7 q-42 -9 -61 -17 q1 1 5 0 q2 0 3 0 q14 -2 10 -19 q-2 -7 -2 -16 q14 3 35 6 l4 -7 q-25 -7 -41 -13 q-1 -13 -1 -29 q14 5 30 9 q4 9 13 9 q13 -1 16 -6 q2 0 4 2 q2 44 2 87 q0 18 14 17 q13 1 13 -15 q0 -16 0 -36 q9 2 36 2 q10 1 16 1 l3 -7 q-40 -9 -55 -16 l0 -28 q3 0 8 0 q35 -3 37 -28 q0 -16 -6 -32 q3 0 6 0 l3 -8 q-59 -7 -108 -29 q-1 13 -2 50 q-1 21 -1 28 q-15 -6 -29 -12 q-5 -85 43 -76 q55 0 123 25 l4 -7 q-79 -35 -135 -36 q-70 -7 -66 78 q-12 -8 -20 -14 q-19 -12 -24 0 q-3 9 12 17 q12 8 32 15 q0 11 1 28 q-6 -3 -12 -6 q-18 -9 -19 4 q1 9 13 14 q6 3 19 7 q2 20 3 27 q2 8 6 12 q-8 -3 -20 -8 q-5 -3 -7 -4 q-20 -11 -22 4 q0 9 15 15 ZM144 36 q9 2 38 5 q6 18 6 31 q0 17 -17 17 q-15 0 -28 -9 q0 -33 1 -44 Z" /><glyph glyph-name="" unicode="&#x6df1;" d="M188 54 q25 -25 59 -55 q-19 -2 -32 -5 q-12 9 -42 37 q0 -27 0 -52 q-15 1 -29 -3 q1 26 1 74 q-20 -32 -39 -57 q-12 1 -34 0 q32 42 52 72 q-19 -4 -36 -12 q-14 -6 -16 3 q-2 13 18 19 q25 7 55 10 l0 13 q-1 18 14 17 q15 1 14 -16 l0 -11 q35 2 69 1 l2 -9 q-39 -1 -71 -6 l0 -14 q8 2 15 -6 ZM91 178 q1 16 18 16 q12 -1 13 -10 q37 14 71 12 q45 -3 43 -42 q-16 3 -31 -1 q4 30 -22 31 q-34 0 -62 -20 q-1 -10 -1 -22 q-15 1 -31 -4 q0 16 2 40 ZM36 48 q5 23 21 19 q11 -3 10 -19 q-1 -6 -7 -29 q-6 -24 -8 -32 q-18 2 -31 -4 q1 7 5 23 q7 29 10 42 ZM57 191 q14 -24 22 -38 q-19 2 -32 -3 q-2 3 -7 11 q-8 14 -12 20 q-4 12 7 17 q13 7 22 -7 ZM51 125 q4 -4 12 -15 q9 -10 12 -15 q-8 -1 -24 -5 q-4 -1 -6 -2 q-3 3 -11 12 q-6 8 -10 12 q-9 10 4 19 q12 7 23 -6 ZM128 146 q9 11 18 5 q11 -6 5 -16 q-5 -6 -20 -25 q3 3 -3 -4 q-13 3 -32 1 q3 4 10 12 q16 19 22 27 ZM187 153 q22 -18 37 -32 q-19 -2 -34 -5 q-3 3 -15 14 q-6 5 -9 7 q-9 7 -1 15 q10 9 22 1 Z" /><glyph glyph-name="" unicode="&#x6e05;" d="M116 89 q9 0 13 -5 q23 13 53 14 q29 1 34 -35 q4 -41 -3 -85 q-12 1 -26 -2 q3 29 3 50 q-33 -5 -61 -16 q-1 -17 -1 -32 q-16 2 -27 -2 q1 65 4 100 q2 12 11 13 ZM89 126 q1 11 17 16 q3 1 9 2 q15 3 22 4 l0 18 q-17 -5 -30 -11 q-19 -9 -23 4 q1 12 16 17 q17 4 37 7 l0 1 q0 18 15 20 q11 -1 15 -19 q27 2 56 2 l2 -12 q-29 2 -58 -3 q0 -9 0 -20 q21 1 43 1 l4 -11 q-26 1 -47 -2 q0 -3 -1 -10 q0 -6 0 -8 q48 3 78 2 l2 -10 q-72 3 -149 -25 q-25 -12 -29 0 q-3 12 17 18 q19 6 52 11 q0 8 0 15 q-13 -3 -25 -8 q-19 -8 -23 1 ZM58 73 q13 -1 10 -16 q-3 -15 -8 -39 q-5 -24 -8 -39 q-16 0 -30 -4 q4 21 14 64 q3 14 5 21 q3 14 17 13 ZM31 197 q11 5 18 -5 q7 -8 22 -36 q1 -2 2 -3 q-17 -1 -29 -4 q-11 16 -18 33 q-3 10 5 15 ZM30 131 q13 3 20 -5 q2 -3 7 -10 q8 -12 12 -18 q-19 -4 -29 -8 q-2 4 -8 12 q-7 8 -9 12 q-5 9 7 17 ZM130 44 q0 -2 0 -7 q-1 -4 -1 -7 q28 5 61 7 q0 4 -1 11 q0 6 0 9 q-30 -5 -59 -13 ZM131 66 q0 0 0 -2 q-1 -1 -1 -2 q27 3 58 5 q-2 19 -14 18 q-21 -2 -43 -19 Z" /><glyph glyph-name="" unicode="&#x7247;" d="M141 203 q16 2 16 -25 q0 -7 -1 -19 q0 -11 0 -16 q36 3 73 1 l5 -9 q-94 -2 -157 -24 q-3 -10 -6 -30 q-1 -3 -1 -4 q40 10 77 9 q50 2 48 -42 q0 -36 -3 -58 q-7 1 -30 -2 q4 27 5 61 q2 30 -20 28 q-42 -2 -82 -21 q-3 -13 -10 -37 q-4 -18 -6 -25 q-15 0 -31 -5 q33 130 36 185 q0 21 11 21 q19 0 19 -25 q0 -2 -1 -5 q0 -9 -3 -27 q22 4 46 7 q0 4 0 16 q1 15 1 23 q0 24 14 23 Z" /><glyph glyph-name="" unicode="&#x751f;" d="M53 171 q5 17 20 12 q13 -4 7 -23 q0 -1 -1 -4 q-2 -5 -6 -15 q7 1 20 3 q14 2 20 3 q0 21 0 39 q-1 16 13 16 q16 0 16 -17 q0 -5 0 -15 q1 -12 1 -19 q38 4 77 4 l4 -10 q-46 -3 -81 -9 q0 -5 0 -17 q1 -12 1 -18 q32 3 68 3 l4 -10 q-41 -3 -72 -9 q0 -30 0 -61 q48 3 102 0 l3 -11 q-122 5 -213 -33 q-16 -7 -21 3 q-3 15 18 23 q32 10 80 16 q0 29 0 56 q-19 -5 -39 -13 q-22 -7 -27 1 q-4 12 13 19 q14 6 53 13 l0 32 q-29 -5 -51 -15 q-3 -9 -8 -18 q-13 -2 -36 -6 q19 32 35 80 Z" /><glyph glyph-name="" unicode="&#x7535;" d="M142 181 q0 -2 0 -6 q-1 -5 -1 -8 l16 0 q68 3 65 -60 q0 -24 -5 -48 q9 0 16 -2 l1 -12 q-51 0 -98 -6 l0 -5 q-1 -40 30 -39 q27 2 70 26 l7 -9 q-51 -40 -88 -40 q-48 0 -48 59 l0 4 q-22 -3 -37 -9 q0 -7 1 -12 q-22 1 -30 -4 q-3 23 -4 67 q0 48 2 77 q2 18 15 17 q12 0 15 -12 q21 4 42 7 q1 4 1 12 q1 8 1 12 q1 18 17 17 q16 1 12 -26 ZM187 61 q1 6 4 23 q1 10 2 14 q-30 0 -56 -3 q0 -6 -1 -18 q0 -12 0 -17 q7 0 20 1 q13 0 19 0 l12 0 ZM162 150 q-12 0 -22 0 q-2 -18 -2 -38 q24 1 56 1 l0 2 q2 38 -32 35 ZM110 146 q-29 -5 -41 -12 l0 -29 q8 2 29 5 q7 1 10 1 q1 6 1 17 q1 12 1 18 ZM69 78 q0 -14 0 -26 q17 3 38 5 q0 17 1 33 q-14 -3 -36 -11 q-2 -1 -3 -1 Z" /><glyph glyph-name="" unicode="&#x7684;" d="M168 197 q17 -5 14 -22 q-3 -12 -8 -28 q10 1 19 1 q39 1 39 -54 q-2 -53 -17 -108 q-8 1 -28 -2 q17 66 17 108 q0 40 -16 40 q-9 0 -21 -10 q-1 -3 -3 -10 q-2 -6 -3 -10 q13 0 16 -14 q3 -19 7 -37 q-9 0 -21 -1 q-3 -1 -5 -1 q-5 16 -8 38 q-1 5 1 9 q-6 2 -12 0 q-1 -52 -10 -94 q-15 2 -26 -3 q3 12 4 25 q-21 -8 -40 -17 q0 -2 1 -7 q0 -5 0 -7 q-19 2 -28 -3 q-9 85 -6 139 q0 17 15 18 q5 0 10 -7 q1 0 4 1 q3 0 4 1 q3 21 3 43 q2 12 14 13 q16 -1 17 -20 q1 -6 -3 -31 q30 -1 39 -28 q4 13 10 36 q6 20 8 28 q4 15 13 14 ZM63 114 q-1 -14 -1 -32 q27 8 49 9 l0 14 q0 25 -17 26 q-14 -2 -27 -15 q-2 -2 -4 -2 ZM63 61 q0 -10 2 -31 q-2 15 0 -3 q20 5 43 7 q2 21 3 43 q-25 -4 -48 -16 Z" /><glyph glyph-name="" unicode="&#x7b14;" d="M64 116 q23 4 72 5 q52 1 69 -2 l3 -10 q-53 -2 -75 -4 q4 -4 4 -13 q48 4 71 3 l4 -11 q-14 -2 -37 -4 q-28 -3 -39 -5 q-1 -9 -1 -18 q61 6 109 6 l6 -12 q-87 -7 -115 -11 q0 -6 0 -14 q3 -33 35 -35 q38 2 71 20 l5 -8 q-36 -24 -85 -28 q-52 -1 -57 46 q0 3 0 7 q-1 5 -1 7 q-45 -8 -74 -23 q-17 -6 -20 9 q-2 18 13 20 q41 8 80 12 q0 3 1 9 q0 5 0 8 q-30 -7 -44 -12 q-18 -7 -19 7 q1 12 16 15 q29 5 49 8 q1 2 1 5 q1 3 1 4 q1 1 1 3 q1 1 1 2 q-20 -4 -36 -10 q-22 -7 -25 9 q-1 11 16 15 ZM176 201 q14 -6 5 -22 q32 5 62 2 l3 -12 q-21 0 -39 -3 q4 -16 6 -35 q-20 4 -29 1 q-1 6 -2 16 q-2 7 -2 10 q-6 -1 -12 -4 q-3 -7 -6 -17 q-15 6 -30 4 q3 6 8 18 q3 8 5 12 q-17 0 -35 -5 q2 -7 8 -24 q-4 11 2 -8 q-21 6 -30 1 q-3 12 -7 22 q-6 -3 -13 -6 q-1 -3 -4 -9 q-4 -11 -6 -17 q-17 5 -31 2 q10 29 26 60 q6 18 22 12 q14 -6 6 -21 q51 12 66 4 l0 -2 q3 5 5 11 q8 16 22 10 Z" /><glyph glyph-name="" unicode="&#x7b80;" d="M186 28 l3 -9 q-68 -7 -99 -26 q-4 30 -1 75 q1 14 13 15 q4 0 7 -1 q12 6 31 6 q37 0 40 -35 q2 -8 0 -23 q0 1 0 -2 q3 0 6 0 ZM134 120 q8 7 44 7 q33 1 42 -17 q10 -15 11 -74 q1 -25 -1 -58 q-17 1 -33 -2 q4 19 4 58 q1 81 -25 75 q-9 1 -23 -7 q-16 -9 -25 1 q-6 8 6 17 ZM94 95 q-6 14 -12 24 q-6 15 7 19 q1 0 3 1 q1 0 2 0 q-5 9 -14 20 q-2 3 -2 6 q0 0 -2 -1 q-1 -1 -2 -2 q-3 -1 -5 -1 q-3 -5 -10 -16 q-7 -10 -11 -16 q-10 2 -31 2 q14 21 37 63 q8 15 23 5 q6 -5 5 -13 q4 0 11 1 q31 4 45 3 l2 -8 q-4 -1 -10 -2 q-14 -2 -29 -6 q3 -2 5 -5 q11 -12 17 -23 q-17 -1 -28 -7 q11 -2 17 -14 q3 -4 8 -15 q5 -10 8 -16 q-23 4 -34 1 ZM47 98 q2 17 19 16 q15 0 11 -19 q-14 -67 -12 -117 q-25 0 -30 -2 q-3 49 12 122 ZM201 143 q-13 0 -28 -5 q-3 8 -8 14 q-2 5 -2 8 q-1 1 -3 1 q-6 -14 -12 -26 q-10 1 -31 -4 q4 7 15 31 q11 24 16 34 q8 12 20 6 q9 -4 4 -13 q0 0 -1 -2 q0 -1 -1 -2 q0 0 2 0 q37 7 66 5 l2 -9 q-27 -3 -52 -11 q3 -5 8 -15 q3 -8 5 -12 ZM116 23 q8 2 36 4 q1 9 1 19 q-18 -1 -37 -11 q0 -7 0 -12 ZM117 65 q-1 -4 -1 -9 q12 2 36 2 q-2 15 -14 14 q-14 0 -21 -7 Z" /><glyph glyph-name="" unicode="&#x7ebf;" d="M83 191 q10 -8 3 -19 q-11 -14 -28 -44 q-3 -5 -2 -7 q0 -2 5 -2 q10 0 17 1 q4 6 10 10 q9 10 20 2 q7 -8 -2 -18 q-29 -32 -41 -51 q-4 -6 -4 -8 q1 -2 7 -2 q27 5 40 11 q-10 -1 -11 8 q1 10 9 15 q13 8 41 15 q-1 4 -4 12 q-2 8 -4 12 q-3 -2 -5 -2 q-15 -6 -21 4 q-2 9 10 14 q4 2 10 4 q-1 7 -5 20 q-1 5 -2 8 q-3 12 7 18 q13 6 18 -7 q5 -17 9 -35 q12 2 25 3 q-6 11 -11 21 q-5 8 5 13 q10 4 17 -4 q12 -19 17 -29 q6 0 11 0 l3 -8 q-36 -4 -63 -11 q5 -13 9 -27 q38 6 58 6 l4 -9 q-30 -5 -56 -14 q1 -5 6 -15 q1 -5 2 -7 q1 2 3 6 q1 1 2 2 q8 11 20 6 q10 -7 3 -19 q-3 -5 -18 -22 q17 -37 35 -66 q-16 1 -31 -1 q-11 13 -24 45 q-6 -6 -4 -4 q-20 -22 -26 -28 q-9 -1 -35 -1 q38 36 55 58 q-8 18 -14 37 q-10 -3 -30 -13 q-5 -2 -7 -3 q-3 -2 -6 -2 l6 -9 q-48 -22 -76 -24 q-23 1 -11 24 q14 24 36 50 q-25 -5 -36 1 q-11 4 -3 19 q14 30 38 62 q8 10 19 4 ZM26 0 q25 15 98 35 l5 -10 q-56 -20 -87 -44 q-16 -11 -23 1 q-4 12 7 18 Z" /><glyph glyph-name="" unicode="&#x80fd;" d="M46 116 q7 0 10 -4 q19 7 32 8 q35 1 36 -36 q2 -50 -6 -101 q-18 0 -27 -2 q2 21 4 54 q-6 -2 -17 -5 q-16 -4 -23 -6 q-1 -24 -3 -44 q-12 0 -28 -3 q3 62 9 124 q1 16 13 15 ZM169 180 q0 -5 0 -16 q30 3 62 5 l4 -9 q-39 -7 -68 -21 l0 -10 q0 -17 15 -17 q13 -1 57 22 l5 -9 q-50 -36 -79 -36 q-28 -1 -27 37 q0 22 3 57 q2 16 15 15 q14 0 13 -18 ZM164 61 q0 -2 0 -5 q25 5 67 8 l4 -8 q-44 -10 -71 -26 l0 -9 q1 -18 17 -19 q14 -2 59 25 l7 -7 q-51 -43 -82 -42 q-30 -1 -31 35 q-1 27 2 49 q1 18 15 17 q14 1 13 -18 ZM111 175 q8 -9 26 -40 q-13 0 -29 -2 q-3 3 -4 6 q-43 -16 -63 -17 q-17 0 -17 14 q-1 15 33 54 q11 14 22 8 q14 -5 4 -19 q-19 -26 -19 -31 q0 -3 7 -4 q8 0 27 6 q-4 8 -6 12 q-6 10 3 16 q10 6 16 -3 ZM57 61 q0 -9 -1 -19 q20 3 39 3 q0 5 1 14 q0 9 0 13 q-23 -5 -39 -11 ZM58 94 q0 -7 0 -15 q9 1 25 2 q8 1 12 1 q1 22 -13 21 q-9 0 -24 -9 Z" /><glyph glyph-name="" unicode="&#x827a;" d="M46 90 q34 23 95 24 q33 -1 35 -18 q0 -11 -20 -26 q-25 -18 -51 -43 q-10 -8 -9 -16 q0 -10 29 -10 q58 1 110 22 l5 -9 q-70 -29 -138 -31 q-43 0 -44 20 q0 10 7 19 q22 27 72 68 q5 4 4 8 q-2 4 -10 4 q-36 -3 -69 -31 q-12 -7 -21 0 q-5 10 5 19 ZM19 154 q18 8 56 14 l-1 11 q-1 13 13 15 q12 2 15 -14 q0 -3 0 -8 q23 3 47 4 q1 2 1 7 q1 4 1 6 q2 15 15 15 q14 -1 13 -18 q-1 -3 -1 -8 q24 1 50 1 l6 -9 q-9 -1 -25 -2 q-23 -2 -33 -3 q-3 -17 -6 -35 q-13 -1 -28 -5 q0 2 1 6 q2 14 4 30 q-24 -3 -44 -8 q0 -14 0 -30 q-14 0 -28 -3 q0 5 1 14 q0 8 0 12 q-24 -6 -43 -16 q-18 -8 -24 5 q-5 12 10 19 Z" /><glyph glyph-name="" unicode="&#x8981;" d="M31 61 q20 5 58 9 q7 10 13 18 q0 0 1 1 q0 1 3 3 q-45 -8 -60 -15 q-1 12 -4 36 q-1 12 -2 18 q-1 16 11 18 q10 1 16 -6 q5 2 14 5 q9 4 13 5 q0 8 0 14 q-1 1 0 3 q0 1 0 2 q-23 -5 -38 -11 q-22 -9 -26 2 q-4 18 20 23 q30 5 81 7 q50 2 88 0 l2 -11 q-28 0 -54 -1 q0 0 0 -1 q2 -4 1 -8 q0 -4 0 -8 l8 0 q39 -2 40 -28 q1 -5 0 -13 q0 -5 0 -7 l5 0 l4 -10 q-44 -2 -96 -10 q8 -6 1 -16 q-3 -3 -5 -6 q75 6 122 6 l3 -12 q-33 -1 -61 -3 q7 -8 -4 -19 q-16 -16 -34 -30 q36 -12 94 -29 q-37 -1 -66 -5 q-13 4 -36 12 q-10 3 -15 5 q-20 -14 -36 -22 q-10 1 -51 -1 q32 18 57 33 q-9 4 -16 7 q-22 11 -10 30 q-21 -6 -35 -12 q-21 -9 -27 2 q-4 17 21 25 ZM158 59 q2 2 3 3 q-28 -3 -51 -7 q-2 -2 -5 -7 q-2 -2 -3 -3 q-3 -8 4 -12 q3 -1 11 -5 q-5 2 5 -2 q26 20 36 33 ZM164 115 q13 0 25 1 q2 6 2 18 q-4 14 -24 16 q-1 -17 -3 -35 ZM120 112 q3 0 9 1 q6 0 9 0 q2 10 4 34 q0 1 0 2 q-4 -1 -11 -2 q-8 -2 -12 -3 q0 -5 0 -15 q1 -11 1 -17 ZM71 106 q3 0 8 1 q11 2 17 3 q0 5 0 13 q-1 9 -1 13 q-14 -6 -25 -15 q1 -9 1 -15 ZM144 174 q0 1 1 3 q0 2 0 2 q-15 -1 -29 -3 q2 -3 2 -7 q0 -5 0 -11 q1 0 3 1 q10 3 22 3 q1 6 1 12 Z" /><glyph glyph-name="" unicode="&#x89c4;" d="M195 46 q-2 -17 1 -30 q3 -14 23 -7 q11 4 25 18 l8 -6 q-12 -21 -34 -35 q-29 -15 -43 5 q-9 11 -7 55 l0 2 q-22 -51 -34 -72 q-15 0 -33 -4 q25 46 49 101 q-20 -2 -29 -5 q3 75 7 102 q1 23 15 21 q12 0 14 -11 q16 6 39 9 q31 2 38 -25 q10 -26 -1 -95 q-20 0 -29 -5 q8 47 3 91 q-2 21 -19 19 q-15 -3 -32 -18 q-4 -47 -4 -77 q2 5 7 16 q6 16 9 24 q6 19 20 12 q14 -5 6 -22 q-8 -20 -18 -42 q3 2 8 2 q14 3 11 -23 ZM25 108 q2 1 7 3 q15 5 25 8 q3 12 4 26 q-13 -4 -25 -12 q-19 -12 -22 -5 q-9 15 10 26 q14 5 40 10 q1 2 2 7 q1 4 1 6 q3 27 16 23 q15 -1 11 -21 q-1 -2 -1 -7 q-1 -4 -1 -6 q11 1 22 1 l4 -10 q-1 0 -2 0 q-12 -1 -26 -4 q-1 -13 -4 -26 q2 0 5 1 q10 2 23 4 l6 -9 q-19 -5 -37 -14 q0 -2 -1 -7 q0 -5 -1 -8 q6 0 12 -7 q12 -18 27 -47 q-13 0 -28 -7 q-2 4 -9 17 q-5 8 -7 12 q-1 -8 -4 -23 q-6 -33 -9 -46 q-19 1 -30 -5 q8 36 19 102 q-2 -1 -5 -4 q-4 -4 -7 -6 q-15 -14 -24 -3 q-14 18 9 31 Z" /><glyph glyph-name="" unicode="&#x89c6;" d="M173 71 q13 0 13 -11 q0 -4 -1 -15 q-1 -14 -1 -19 q0 -26 26 -21 q10 1 36 17 l4 -7 q-23 -20 -50 -31 q-23 -8 -38 9 q-3 3 -5 33 q-6 -21 -18 -48 q-20 2 -30 1 q17 35 32 77 q-1 0 -3 0 q-17 -2 -23 -5 q-1 5 -1 10 q-13 -3 -25 -8 q-1 1 -4 3 q-3 2 -4 3 q0 -14 -1 -43 q0 -25 0 -36 q-7 0 -26 -3 q-1 0 -2 0 q0 39 1 65 q-6 -8 -13 -13 q-10 1 -37 1 q41 37 63 73 q3 4 1 6 q-1 2 -7 3 q-13 -1 -31 -11 q-8 -5 -14 0 q-6 7 -1 13 q7 8 35 14 q27 5 42 2 q16 -5 11 -19 q-1 -8 -15 -27 q1 0 2 -1 q3 -1 4 -2 q6 -4 21 -19 q0 48 4 112 q0 13 13 14 q13 0 15 -9 q17 5 38 5 q35 1 38 -29 q2 -31 -4 -88 q-17 0 -30 -3 q4 15 6 45 q2 30 1 44 q-3 17 -18 14 q-16 -2 -31 -12 q0 -25 -3 -83 q0 -6 0 -9 q12 33 19 62 q2 13 16 9 q12 -2 9 -15 q-2 -7 -7 -26 q-5 -14 -7 -22 ZM43 187 q11 9 21 -2 q10 -12 34 -41 q-13 0 -35 -4 q-17 21 -22 27 q-7 12 2 20 Z" /><glyph glyph-name="" unicode="&#x8ba1;" d="M103 129 q13 6 50 11 q0 1 0 4 q-2 32 -2 44 q-1 16 14 17 q17 -1 18 -19 q2 -17 2 -44 q37 2 63 -1 l3 -9 q-35 -1 -65 -7 q2 -90 2 -146 q-17 -1 -32 -4 q1 63 -2 144 q-23 -6 -41 -15 q-19 -6 -23 5 q-2 14 13 20 ZM78 25 l0 -4 q1 -2 1 -6 q1 -4 1 -6 q2 -7 11 -1 q15 11 21 18 l7 -6 q-15 -24 -38 -39 q-23 -14 -32 15 q-2 6 -2 13 q-1 7 -1 16 q0 27 9 59 q1 4 -1 6 q-2 2 -6 0 q-6 -3 -18 -13 q-11 -9 -19 2 q-7 12 9 23 q14 9 38 11 q16 -1 26 -10 q6 -8 3 -22 q-9 -29 -9 -56 ZM42 194 q15 4 24 -8 q16 -30 20 -43 q-17 0 -32 -5 q-7 16 -17 34 q-8 15 5 22 Z" /><glyph glyph-name="" unicode="&#x8bbe;" d="M97 73 q32 18 67 19 q39 -2 42 -26 q0 -15 -24 -39 q27 -15 67 -35 q-22 -2 -42 -9 q-21 12 -46 25 q-12 -9 -28 -20 q-25 1 -45 0 q31 19 49 34 q-6 3 -15 8 q-6 4 -9 5 q-11 7 -5 19 q8 11 22 3 q4 -3 16 -10 q7 -4 11 -6 q6 6 16 19 q-1 -1 2 3 q5 13 -15 14 q-23 -1 -54 -20 q-12 -8 -16 1 q-4 8 7 15 ZM132 195 q8 -2 11 -10 q13 6 31 5 q26 0 24 -21 q0 -2 -1 -6 q0 -7 -3 -27 q-2 -13 11 -13 q15 0 35 11 l4 -7 q-24 -20 -51 -21 q-25 0 -26 21 q0 19 3 35 q4 13 -9 13 q-10 0 -18 -7 q-1 -12 -5 -37 q-2 -17 -3 -26 q-17 -2 -30 -5 q9 40 11 81 q2 18 16 14 ZM69 26 q2 -23 11 -16 q4 3 11 10 q3 3 4 4 l6 -6 q-14 -23 -30 -34 q-23 -13 -29 15 q-4 48 2 91 q1 5 -1 7 q-2 2 -7 0 q-4 -3 -12 -6 q-9 -6 -15 1 q-5 9 10 16 q16 9 32 9 q25 2 20 -31 q0 -4 -1 -10 q-3 -34 -1 -50 ZM64 190 q12 -17 27 -41 q-20 -1 -32 -7 q-7 12 -23 35 q-7 14 4 22 q13 6 24 -9 Z" /><glyph glyph-name="" unicode="&#x8d85;" d="M68 191 q1 13 14 11 q16 -3 16 -17 q0 -4 0 -9 q17 0 31 -1 l4 -12 q-20 0 -35 -2 q-1 -14 -1 -28 q18 1 35 -1 l5 -10 q-25 -3 -43 -6 q3 -4 3 -10 q0 -8 -1 -20 q12 2 27 0 q0 2 0 2 q3 18 14 16 q13 -1 16 -12 q19 8 45 7 q22 -5 27 -25 q1 -8 1 -22 l6 0 l5 -11 q-70 -5 -108 -13 q29 -7 89 -18 q21 -3 31 -5 q-2 -2 -7 -6 q-14 -12 -19 -17 q-87 14 -174 39 q-3 -21 -1 -5 q-2 -16 -4 -35 q-1 0 -4 1 q-15 5 -27 3 q11 64 21 93 q4 12 16 8 q13 -3 10 -18 l-5 -20 l10 -3 q1 11 1 32 q1 22 1 32 q-18 -5 -36 -15 q-14 -6 -21 4 q-7 15 9 20 q14 8 47 13 q1 9 1 25 q-11 -3 -20 -6 q-18 -6 -23 4 q-5 16 11 19 q10 1 33 3 q0 6 0 15 ZM137 180 q31 16 68 3 q20 -10 22 -29 q-1 -33 -7 -49 q-17 5 -29 2 q7 24 5 49 q-1 10 -8 13 q-2 -18 -15 -60 q-15 5 -31 0 q7 19 16 59 q-6 -2 -10 -5 q-6 -4 -12 2 q-5 11 1 15 ZM96 59 q-1 -12 -1 -22 q2 -1 6 -2 q9 -3 23 -6 q-1 21 -1 44 q-12 -3 -27 -14 ZM182 82 q-16 -3 -29 -16 q-1 -6 0 -10 q14 1 44 -1 q0 9 -1 15 q-1 11 -14 12 Z" /><glyph glyph-name="" unicode="&#x8fd8;" d="M104 172 q48 19 117 16 l3 -10 q-23 0 -54 -6 q8 -7 1 -18 q-9 -14 -18 -26 q8 4 17 -5 q3 -3 12 -10 q34 -30 49 -48 q-25 -4 -31 -6 q-10 11 -34 33 q-5 4 -7 6 q0 -29 1 -71 q-20 3 -31 -1 q0 37 -1 67 q-3 -4 -10 -11 q-8 -10 -12 -15 q-11 2 -33 0 q-1 -17 -4 -28 q0 -2 -1 -4 q42 -24 108 -27 q16 -1 52 0 q15 0 22 0 l2 -9 q-27 -5 -76 -5 q-69 2 -118 17 q-6 -11 -14 -20 q-11 4 -37 0 q25 26 31 51 q5 25 4 52 q0 5 -1 6 q-2 2 -5 0 q-3 0 -9 -4 q-9 -3 -13 7 q-3 11 7 17 q16 8 34 5 q15 -2 18 -22 q2 -11 0 -32 q22 25 68 92 q-1 0 -3 -1 q-13 -6 -24 -12 q-19 -11 -24 4 q-5 9 14 18 ZM83 155 q-24 -2 -32 -5 q-3 5 -8 13 q-6 9 -9 13 q-9 14 0 19 q13 6 25 -3 q13 -14 24 -37 Z" /><glyph glyph-name="" unicode="&#x8fd9;" d="M189 124 q-4 -6 -20 -25 q-5 -6 -8 -9 q44 -37 67 -60 q-2 0 -7 -1 q-18 -1 -27 -4 q-21 19 -51 43 q-5 -5 -13 -15 q-13 -14 -19 -20 q-14 0 -36 -4 q0 -1 0 -3 q-1 -2 -1 -3 q62 -29 173 -20 l-4 -10 q-106 -9 -183 5 q-1 -2 -6 -6 q-4 -5 -7 -8 q-22 2 -41 -2 q31 30 36 38 q7 8 7 22 q0 14 0 30 q0 18 -6 16 q-6 -1 -15 -12 q-8 -9 -15 0 q-5 11 7 20 q23 13 42 12 q15 1 15 -31 q1 -11 -1 -41 q0 -2 0 -5 q9 10 30 33 q11 14 17 20 q-1 1 -3 3 q-9 6 -17 13 q-15 10 -4 21 q8 8 25 -2 q1 -1 3 -2 q5 -4 14 -11 q2 2 5 7 q10 12 12 16 q16 23 28 16 q15 -5 3 -21 ZM154 190 q8 -8 22 -24 q21 2 42 2 l3 -8 q-61 -5 -120 -28 q-20 -10 -24 0 q-8 15 20 21 q21 5 42 8 q-6 8 -13 15 q-7 11 2 18 q12 6 26 -4 ZM54 179 q5 -8 13 -22 q6 -10 8 -14 q-18 0 -28 -5 q-2 3 -7 11 q-6 10 -10 15 q-8 16 4 21 q12 7 20 -6 Z" /><glyph glyph-name="" unicode="&#x94fa;" d="M52 -6 q-4 29 -3 64 q-3 -1 -9 -5 q-6 -3 -9 -5 q-15 -10 -21 1 q-6 9 9 19 q11 6 31 11 q2 13 3 25 q-3 -1 -7 -3 q-3 -1 -4 -1 q-19 -10 -20 5 q1 10 14 14 q40 13 80 12 l2 -5 q3 1 8 1 q7 0 10 -4 q8 4 20 7 q0 14 0 27 q-15 -4 -28 -10 q-18 -10 -21 4 q-1 9 8 15 q-25 -6 -54 -17 q0 -1 -1 -3 q-3 -11 -6 -15 q-17 -1 -32 -5 q13 34 27 64 q8 16 20 12 q13 -3 7 -17 q-3 -6 -5 -12 q5 0 14 1 q23 2 37 1 l3 -7 q13 3 31 5 l0 18 q-1 16 14 15 q14 0 14 -12 q0 -9 0 -19 q5 0 9 1 q0 0 -1 2 q-3 16 8 18 q17 3 21 -11 q2 -6 2 -9 q9 0 17 -1 l4 -9 q-24 3 -60 -3 l0 -28 q2 0 6 0 q7 1 10 0 q32 0 33 -31 q5 -51 1 -117 q-14 0 -28 -3 q3 39 2 69 q-4 0 -14 -2 q-7 -1 -10 -1 q0 -10 0 -32 q-1 -22 -1 -33 q-15 0 -28 -4 q0 31 0 62 q-10 -3 -19 -6 q0 -8 -1 -24 q0 -14 0 -21 q-17 1 -29 -6 q0 23 2 68 q1 17 1 25 q-14 -3 -31 -8 q0 -5 0 -15 q-1 -31 1 -44 q0 -6 3 -8 q2 -2 7 1 q8 8 12 12 l5 -5 q-9 -17 -25 -31 q-22 -12 -29 13 ZM112 121 q-8 -1 -30 -7 q0 -4 -1 -14 q-1 -9 -2 -14 q5 1 16 3 q10 2 15 3 q0 4 1 11 q0 8 0 11 q0 4 1 7 ZM208 88 q-12 0 -24 -1 l0 -24 q4 0 12 1 q8 0 12 0 q0 12 0 24 ZM184 101 q11 0 23 0 l0 3 q1 21 -11 19 q-6 0 -12 -2 q0 -9 0 -20 ZM155 81 q-9 -3 -17 -7 q0 -2 0 -8 q-1 -5 -1 -8 q9 2 18 2 q0 11 0 21 ZM138 97 q3 0 9 1 q5 0 8 1 q0 3 1 8 q0 4 0 6 q-10 -3 -18 -8 q0 -4 0 -8 Z" /><glyph glyph-name="" unicode="&#x9762;" d="M41 121 q5 0 9 -4 q27 11 50 16 q3 17 5 31 q-36 -6 -67 -17 q-23 -8 -25 5 q-1 15 19 20 q82 18 202 13 l3 -10 q-53 0 -103 -6 q0 -3 0 -6 q0 -11 -4 -25 q24 3 46 -1 q49 -9 56 -46 q3 -38 -20 -98 q-19 0 -33 -3 q6 10 10 22 q-86 -11 -155 -31 q-6 52 -7 122 q0 15 14 18 ZM165 116 q1 -15 2 -48 q1 -33 1 -48 q13 1 25 1 q13 37 10 73 q-8 25 -32 30 q-4 0 -9 0 q2 -2 2 -6 q1 -1 1 -2 ZM61 10 q5 1 17 2 q5 1 8 1 q0 60 -1 90 l0 3 q-14 -6 -27 -16 q0 -9 1 -27 q1 -35 2 -53 ZM115 16 q13 2 25 2 q0 15 0 32 q-12 -2 -25 -8 l0 -26 ZM115 106 l0 -12 q12 0 23 0 q-1 11 -1 21 q-1 5 1 8 q-13 -3 -27 -7 q3 -3 4 -10 ZM139 62 q0 4 -1 11 q0 6 0 9 q-11 -2 -23 -5 l0 -17 q12 2 24 2 Z" /><glyph glyph-name="" unicode="&#x9ad8;" d="M60 -17 q-14 3 -29 -5 q-4 11 -5 42 q0 30 3 49 q1 13 15 12 q11 0 14 -9 q27 7 69 11 q40 4 67 2 q31 -3 42 -29 q8 -25 -4 -69 q-12 1 -30 -1 q10 37 5 60 q-6 23 -25 23 q-63 3 -124 -21 q-2 -54 2 -65 ZM83 157 q9 0 14 -5 q28 7 67 4 q32 -4 38 -23 q2 -9 1 -22 q3 0 6 0 l3 -9 q-83 -4 -114 -11 q0 -1 0 -4 q-16 4 -30 -3 q-3 13 -1 60 q1 13 16 13 ZM89 54 q6 0 11 -6 q28 11 62 7 q24 -2 29 -21 q2 -7 0 -19 q3 0 5 0 l3 -8 q-75 -11 -113 -23 q-8 7 -10 58 q1 11 13 12 ZM44 175 q14 5 66 9 l-3 2 q-8 9 0 18 q10 9 23 -1 q8 -5 17 -18 q56 0 77 -2 l3 -11 q-131 -2 -175 -23 q-20 -8 -23 5 q-3 14 15 21 ZM157 142 q-37 1 -59 -10 q0 -9 0 -19 q36 0 74 0 q0 5 0 12 q1 18 -15 17 ZM145 44 q-22 -5 -40 -16 q1 -7 1 -18 q21 3 55 5 q0 2 1 7 q0 4 0 6 q-2 17 -17 16 Z" /><glyph glyph-name="" unicode="&#x9ed1;" d="M58 86 q10 4 45 10 q5 1 8 1 q1 6 1 12 q-23 -4 -41 -9 q1 -4 1 -9 q-17 3 -30 0 q-4 45 -6 80 q-1 18 12 17 q7 1 12 -5 q41 17 90 16 q62 -3 68 -37 q1 -15 -2 -28 l4 0 l5 -11 q-57 -6 -83 -10 q0 -6 -1 -13 q35 4 70 4 l4 -9 q-41 -4 -74 -10 q0 -9 0 -17 q62 6 98 3 l5 -9 q-144 -7 -204 -38 q-16 -9 -25 1 q-6 12 7 19 q27 10 88 20 q0 7 1 14 q-24 -6 -43 -13 q-17 -8 -20 3 q-2 12 10 18 ZM210 35 q10 -12 29 -48 q-11 0 -31 -4 q2 1 -2 0 q-12 28 -21 40 q-8 13 3 17 q13 5 22 -5 ZM86 14 q-13 -18 -30 -38 q-2 0 -8 1 q-15 2 -23 2 q19 22 35 46 q9 11 20 6 q11 -6 6 -17 ZM164 34 q1 -2 4 -8 q3 -6 15 -35 q-17 0 -29 -3 q-2 4 -5 12 q-7 14 -10 24 q-5 12 6 16 q13 3 19 -6 ZM173 177 q10 -5 6 -14 q-4 -11 -15 -22 q-10 2 -22 2 l0 -12 q21 2 44 3 q3 14 2 29 q-2 21 -33 22 q-9 1 -22 -2 q8 -6 8 -12 q0 -3 1 -9 q0 -7 0 -10 q7 12 13 20 q5 10 18 5 ZM116 30 q10 -16 22 -44 q-16 3 -30 -1 q-4 10 -10 29 q-1 3 -2 5 q-4 10 5 15 q9 4 15 -4 ZM67 159 q2 -15 3 -37 q18 4 42 7 l0 9 q-12 0 -22 -4 q-10 14 -13 23 q-1 4 0 7 q-6 -2 -10 -5 ZM96 168 q10 -9 16 -18 q0 8 0 17 q-1 7 1 11 q-12 -3 -22 -8 q2 0 5 -2 Z" /><glyph glyph-name="" unicode="&#xff0c;" d="M57 18 l1 0 l24 -16 q1 -2 1 -2 q-5 -23 -24 -35 q-6 -2 -13 -2 q11 23 11 37 q0 10 0 18 Z" /></font>
</defs>
</svg>
